<svg width="25" height="25" fill="none" xmlns="http://www.w3.org/2000/svg"><path d="M14.414.054C12.96.19 11.67.786 10.732 1.748c-.64.65-.952 1.201-1.167 2.036-.107.43-.107.493-.097 2.525l.014 2.085-1.523.014-1.523.015-.118.137-.117.136v2.163c0 2.115 0 2.168.103 2.295l.097.127h2.925l.01 5.738.015 5.732.112.112.112.113h4.985l.093-.118c.088-.112.093-.273.093-5.796V13.38H16.3c.854 0 1.626-.02 1.719-.049a.462.462 0 00.234-.146c.034-.054.17-1.05.313-2.276l.248-2.173-.097-.131a.463.463 0 00-.215-.162c-.064-.02-.938-.034-1.939-.039l-1.826-.005.02-1.455c.024-1.494.039-1.63.244-1.923.049-.074.215-.19.371-.269l.278-.137 1.48-.014 1.474-.02.098-.122c.093-.122.098-.2.098-2.12 0-1.386-.015-2.03-.054-2.113a.407.407 0 00-.205-.176c-.17-.059-3.5-.059-4.126.005z" fill="#436EAB"/></svg>