<svg width="13" height="25" fill="none" xmlns="http://www.w3.org/2000/svg"><path d="M8.213.049C6.758.186 5.469.78 4.53 1.743c-.64.65-.952 1.201-1.167 2.036-.107.43-.107.493-.097 2.525l.014 2.085-1.523.014-1.524.015-.117.137L0 8.69v2.163c0 2.115 0 2.169.103 2.295l.097.127h2.925l.01 5.738.014 5.732.113.112.112.113h4.985l.093-.117c.088-.113.093-.274.093-5.796v-5.684h1.553c.854 0 1.626-.02 1.718-.049a.462.462 0 00.235-.146c.034-.054.17-1.05.312-2.276l.25-2.173-.098-.131a.463.463 0 00-.215-.162c-.064-.019-.938-.034-1.939-.039l-1.826-.004.02-1.456c.024-1.494.039-1.63.244-1.923.049-.074.215-.19.37-.269l.28-.137 1.479-.014 1.474-.02.098-.122c.093-.122.098-.2.098-2.119 0-1.387-.015-2.031-.054-2.114a.406.406 0 00-.205-.176c-.171-.059-3.501-.059-4.126.005z" fill="#136CD5"/></svg>