<svg width="14" height="15" fill="none" xmlns="http://www.w3.org/2000/svg"><path d="M5.43.156l.02.308c.102 1.38-.48 3.05-1.698 4.87-.394.589-1.094 1.513-1.147 1.513-.017 0-.028-.043-.037-.144-.057-.709-.1-.992-.202-1.36a4.895 4.895 0 00-.299-.751l-.057-.11-.013.092c-.09.688-.287 1.24-.823 2.319C.728 7.794.592 8.1.443 8.53c-.343.995-.387 2.048-.12 2.899.085.266.298.704.468.957.49.73 1.242 1.404 2.34 2.09.224.14.53.32.542.32.004 0-.029-.084-.075-.187a5.87 5.87 0 01-.38-1.257c-.036-.228-.03-.896.012-1.104.112-.567.294-.976.738-1.657.38-.58.567-.931.77-1.445.152-.388.305-.887.307-1 0-.064.059-.021.129.095.272.45.41 1.126.351 1.732a1.673 1.673 0 00-.013.219c.012.009.159-.18.277-.356.427-.633.727-1.46.857-2.365.054-.375.057-.94.008-1.22-.01-.048-.006-.068.009-.068.066 0 .578.43.887.75 1.876 1.924 2.524 4.998 1.569 7.43a4.482 4.482 0 01-.11.255c-.025.05-.052.11-.063.134l-.017.048.105-.06c.193-.11.71-.442.928-.599 1.691-1.212 2.64-2.602 2.91-4.262.055-.337.059-1.152.01-1.515-.163-1.148-.606-2.286-1.339-3.432-.42-.658-.998-1.375-1.456-1.812a3.036 3.036 0 00-.212-.19c-.002.003.02.078.05.167.112.346.136.513.136.979-.002.373-.007.441-.042.585a1.784 1.784 0 01-.378.771c-.099.12-.13.116-.169-.018-.473-1.69-1.226-3.054-2.235-4.051A5.954 5.954 0 005.832.314C5.557.17 5.43.12 5.43.157z" fill="#C4C4C4"/></svg>