<svg width="14" height="15" fill="none" xmlns="http://www.w3.org/2000/svg"><path d="M6.324.925c.002.875 0 .925-.018.929-.02.005-.072-.02-.087-.041a5.243 5.243 0 01-.445-.257.022.022 0 00-.018-.011c-.02-.002-.063-.025-.063-.036 0-.005-.005-.007-.012-.003-.006.003-.012.001-.012-.005 0-.007-.007-.013-.016-.013a.056.056 0 01-.033-.015.086.086 0 00-.027-.019 8.274 8.274 0 01-.521-.302c0 .005-.02-.004-.044-.019a4.707 4.707 0 00-.1-.058l-.053-.032-.093.162-.303.524a27.78 27.78 0 01-.216.369.223.223 0 00-.022.043c-.01.021-.02.039-.026.039-.006 0-.01.007-.01.016 0 .008-.011.03-.024.045l-.024.03.25.143a4.686 4.686 0 01.27.164 2.816 2.816 0 01.327.188c.015 0 .178.095.183.107.002.005.009.007.015.003s.01 0 .01.006c0 .007.007.013.017.013.01 0 .026.008.035.018a5.985 5.985 0 01.454.265 11.717 11.717 0 01.577.328l.03.023v1.37c0 1.2-.001 1.37-.017 1.375a3.865 3.865 0 01-.476-.265.022.022 0 00-.017-.011c-.02-.002-.063-.025-.063-.035 0-.005-.004-.009-.009-.008a1.173 1.173 0 01-.233-.132 2.71 2.71 0 01-.302-.175 7.167 7.167 0 01-.523-.302c0 .01-.425-.235-.435-.25a.022.022 0 00-.018-.012c-.02-.002-.063-.025-.063-.036 0-.005-.005-.007-.012-.003-.006.003-.011.001-.011-.005 0-.007-.007-.013-.017-.013a.058.058 0 01-.035-.018c-.01-.01-.019-.016-.019-.012a.268.268 0 01-.072-.038l-.074-.045-.004-1.244-.002-1.244H2.482l-.003.826-.004.825-.205-.118a2.708 2.708 0 01-.23-.141c-.02-.001-.063-.025-.063-.035 0-.005-.004-.008-.008-.007-.015.003-.074-.028-.074-.04 0-.005-.004-.008-.008-.007a1.786 1.786 0 01-.238-.13.555.555 0 00-.061-.037c-.032-.015-.056-.032-.056-.037 0-.006-.004-.008-.01-.007-.014.003-.072-.03-.072-.04 0-.006-.006-.007-.012-.003-.007.003-.012 0-.012-.005a.013.013 0 00-.013-.013 6.121 6.121 0 01-.503-.29c0 .006-.011.002-.025-.008C.853 3.137.84 3.136.84 3.155a1.165 1.165 0 01-.131.227 4.442 4.442 0 01-.22.386 8.5 8.5 0 01-.246.427.814.814 0 00-.048.085.3.3 0 01-.049.08c-.025 0-.002.02.05.045.032.015.058.033.058.039 0 .004.003.008.01.007.013-.004.072.03.072.04 0 .005.005.007.012.003.006-.003.011-.001.011.005 0 .007.007.013.017.013.01 0 .026.008.035.018a3.954 3.954 0 01.372.218c.003.006.009.011.011.01.01-.005.07.028.07.037 0 .005.004.009.009.006.01-.003.51.284.52.299.003.006.008.01.01.01.011-.005.07.027.07.037 0 .006.005.007.012.003.006-.003.011 0 .011.005 0 .007.006.013.013.013.016 0 .235.125.257.148.015.015.014.02-.008.037-.015.01-.062.039-.106.061a.759.759 0 00-.085.048 3.99 3.99 0 01-.291.165c-.001-.002-.012.005-.021.016a.067.067 0 01-.035.017c-.01 0-.017.006-.017.013 0 .006-.004.01-.01.006-.006-.005-.013-.002-.015.002a.916.916 0 01-.2.117 2.645 2.645 0 01-.324.187 1.09 1.09 0 01-.125.08l-.122.07a.213.213 0 00.03.06 19.108 19.108 0 01.424.745c.006.001.056.085.114.185.133.233.146.253.16.232.005-.008.01-.01.01-.003s.003.005.01-.002a6.633 6.633 0 01.528-.307 4.61 4.61 0 01.438-.25c.005 0 .008-.003.008-.008 0-.01.044-.033.064-.035a1.388 1.388 0 01.24-.14 2.133 2.133 0 01.285-.164 6.19 6.19 0 01.498-.286.798.798 0 01.224.122 1.079 1.079 0 01.223.129c.002.004.009.007.015.002.006-.004.01 0 .01.006 0 .007.007.013.017.013.01 0 .024.008.035.017.01.01.021.018.025.018a6.115 6.115 0 01.465.27 3.218 3.218 0 01.361.208c0-.01.118.06.13.076.004.006.012.01.018.01.02.002.063.025.063.036a4.677 4.677 0 01.457.265.571.571 0 01.164.093c0-.013.144.077.15.093.004.012-.213.142-.236.142a32.482 32.482 0 01-1.073.621c-.01.013-.578.34-.592.34a1.388 1.388 0 01-.24.14.773.773 0 01-.1.064c-.08.045-.097.052-.12.04-.015-.005-.028-.016-.028-.022 0-.004-.003-.008-.008-.007a4.61 4.61 0 01-.453-.26 8.327 8.327 0 01-.533-.307c-.002-.005-.011-.01-.02-.01a.054.054 0 01-.034-.018 5.982 5.982 0 01-.467-.272 6.957 6.957 0 01-.524-.303c0 .004-.014 0-.032-.012-.023-.015-.033-.017-.036-.006a.08.08 0 01-.021.03.066.066 0 00-.017.025c0 .008-.292.518-.428.75l-.15.26-.088.155.054.032a.317.317 0 01.074.051c.01-.005.07.028.07.038 0 .004.003.008.009.007.014-.004.072.028.072.04a1.185 1.185 0 01.169.091l.211.122a.259.259 0 01.068.047c.005.007.01.009.01.004a.571.571 0 01.164.094c0-.01.424.236.435.25.003.008.009.011.011.01.014-.007.07.03.07.046a2.148 2.148 0 01-.374.224.013.013 0 00-.013.013c0 .006-.005.01-.01.006-.007-.005-.014-.003-.016.002a.915.915 0 01-.2.117c-.003.01-.221.137-.232.136-.003 0-.012.007-.02.015a.056.056 0 01-.033.015c-.01 0-.017.006-.017.013 0 .006-.005.009-.012.005-.005-.003-.011-.002-.011.004 0 .009-.059.042-.07.037-.002-.001-.008.004-.011.01-.01.014-.394.236-.41.236a.013.013 0 00-.013.013c0 .006-.006.008-.012.005-.007-.004-.012-.003-.012.002a.244.244 0 01-.071.05c-.05.027-.07.043-.065.056.005.01.07.127.148.262.077.134.14.25.14.255 0 .007.006.013.013.013.006 0 .009.006.005.012-.003.007-.002.012.004.012.004 0 .022.022.037.05l.163.284c.075.129.135.238.133.242-.002.006.002.01.008.01s.016.015.024.035c.009.019.02.035.026.035.012 0 .128-.06.139-.071a3.356 3.356 0 01.328-.184c0-.01.043-.034.063-.035a5.251 5.251 0 01.463-.27 1.385 1.385 0 01.223-.129 2.702 2.702 0 01.305-.175.253.253 0 01.117-.062h.024v1.582H3.97V11.32c0-1.365-.012-1.222.1-1.277a.502.502 0 00.064-.036 7.542 7.542 0 01.469-.266c0-.012.058-.044.074-.04.004 0 .008-.003.008-.007 0-.01.043-.034.063-.035a4.613 4.613 0 01.456-.263c.005.001.008-.002.008-.007 0-.01.044-.034.064-.035a.024.024 0 00.017-.01.434.434 0 01.13-.077c0 .005.005.003.01-.005.01-.016.814-.48.826-.475.005 0 .008-.004.008-.01 0-.008.012-.011.027-.009l.026.003.004 1.328c.002 1.167 0 1.332-.016 1.354-.01.014-.017.02-.017.016 0-.006-.008-.001-.019.008a.058.058 0 01-.035.02c-.01 0-.017.005-.017.012 0 .006-.004.01-.01.006-.006-.005-.013-.003-.015.002a6.25 6.25 0 01-.49.284.013.013 0 00-.012.013c0 .005-.005.008-.012.004-.006-.003-.012-.002-.012.004 0 .01-.058.042-.069.037a.433.433 0 01-.142.084 3.128 3.128 0 01-.362.209.013.013 0 00-.013.013c0 .006-.004.01-.01.006-.006-.005-.013-.002-.015.002a4.358 4.358 0 01-.444.258c0 .012-.058.044-.073.04-.005-.001-.009.002-.009.007 0 .012-.058.043-.072.04-.006-.001-.01.002-.01.007 0 .006-.03.026-.066.043a.472.472 0 00-.074.043.724.724 0 01-.074.045.253.253 0 00-.067.045c0 .003.045.083.1.178.055.095.1.178.1.185 0 .008.004.014.01.014s.016.018.026.038a.214.214 0 00.022.044c.014.012.117.196.117.209 0 .008.005.014.01.014.007 0 .017.017.026.039.009.02.02.04.023.043a2.555 2.555 0 01.173.307.33.33 0 01.048.07c.045.081.052.086.086.066.015-.008.03-.013.036-.012.005.001.008-.002.008-.007 0-.01.044-.034.064-.035a.022.022 0 00.017-.012c.01-.015.476-.283.493-.283a.013.013 0 00.013-.013c0-.006.004-.01.01-.006.006.005.013.002.015-.002.005-.013.504-.303.511-.298a.822.822 0 01.216-.117l.027-.004V15h1.413l.002-.952c.003-.87.005-.952.022-.956.01-.002.028.005.039.015.01.011.019.017.019.013 0-.008.426.24.435.253.003.008.009.011.011.01.01-.005.07.028.07.037 0 .005.003.008.009.007.014-.003.072.029.072.04a7.517 7.517 0 01.565.326c.006 0 .044.019.083.041.07.042.071.042.092.019.013-.013.022-.027.022-.032a3.503 3.503 0 01.18-.313c.006-.016.142-.252.207-.36l.107-.187a1.698 1.698 0 01.114-.188c-.005 0 .007-.027.027-.06.036-.057.036-.06.015-.079a.163.163 0 00-.034-.024 1.82 1.82 0 01-.243-.141 1.065 1.065 0 01-.204-.119c-.014.002-.5-.28-.51-.294a.023.023 0 00-.011-.01c-.01.006-.07-.027-.07-.037 0-.004-.003-.008-.008-.007a4.613 4.613 0 01-.438-.25c-.004-.006-.01-.011-.012-.01-.01.005-.093-.04-.093-.049 0-.005-.007-.01-.016-.01a.058.058 0 01-.035-.018 2.784 2.784 0 01-.215-.12l-.197-.114-.003-1.327c-.002-1.266-.001-1.327.019-1.327a1.845 1.845 0 01.308.176c.01-.005.07.028.07.038 0 .004.004.008.008.007.012-.005.427.235.438.25.003.006.01.011.011.01.011-.005.07.028.07.037 0 .006.004.007.011.004.007-.004.012-.001.012.005 0 .007.007.012.016.012.01 0 .026.009.036.02a5.983 5.983 0 01.454.265c.003.006.009.01.011.008.01-.004.07.028.07.038 0 .005.003.008.009.007.014-.004.072.028.072.04a7.343 7.343 0 01.529.305.022.022 0 00.017.011.97.97 0 01.146.076c.003.004.008.555.011 1.226l.006 1.221.706.004.707.002.002-.8c.004-.728.005-.8.022-.803.011-.002.03.006.042.018.01.011.023.02.027.018.007-.002.213.113.223.125.004.003.03.02.063.036a.17.17 0 01.055.037c0 .006.003.008.009.007.014-.003.073.029.073.04a6.675 6.675 0 01.529.305c.003.006.009.01.011.01.01-.005.07.027.07.037 0 .006.005.007.011.003.007-.003.012 0 .012.005 0 .007.005.013.013.013.01 0 .31.169.44.247l.037.022.08-.137a1.118 1.118 0 01.098-.158c0-.006.082-.155.183-.33l.204-.353c.01-.02.047-.081.08-.137a.907.907 0 00.06-.112c0-.005-.023-.022-.052-.038-.03-.017-.053-.033-.053-.039 0-.005-.005-.006-.012-.002-.006.003-.012 0-.012-.005 0-.007-.007-.013-.016-.013-.01 0-.026-.01-.037-.02-.012-.011-.022-.019-.022-.015a2.316 2.316 0 01-.3-.173c0 .01-.118-.06-.13-.077a.024.024 0 00-.017-.01c-.02-.001-.064-.025-.064-.035 0-.005-.003-.008-.008-.007-.015.003-.074-.029-.074-.04 0-.005-.003-.008-.008-.007a4.614 4.614 0 01-.454-.26 1.967 1.967 0 01-.323-.194c0-.016.254-.17.279-.17.008 0 .014-.006.014-.013 0-.005.005-.009.01-.005.006.004.013.002.016-.003a4.26 4.26 0 01.435-.25.008.008 0 00.008-.008c0-.011.058-.043.074-.04.004.002.008-.002.008-.006 0-.01.06-.043.069-.038.002.001.008-.003.012-.01.011-.017.432-.257.44-.25.004.003.006 0 .006-.007s.01-.015.024-.02c.023-.007.023-.008-.003-.056a.27.27 0 01-.022-.054c.003-.003-.002-.008-.008-.012a3.514 3.514 0 01-.15-.247 95.535 95.535 0 00-.285-.492c-.08-.139-.16-.28-.176-.313-.016-.034-.036-.061-.044-.061a1.233 1.233 0 00-.166.087 1.418 1.418 0 01-.165.087.013.013 0 00-.013.013c0 .006-.004.009-.011.005-.006-.004-.012-.002-.012.004 0 .009-.059.042-.07.037-.002-.001-.008.004-.011.01a5.55 5.55 0 01-.433.25 1.034 1.034 0 01-.2.115.013.013 0 00-.013.013c0 .006-.005.01-.01.006-.006-.005-.013-.003-.016.002a2.231 2.231 0 01-.285.166.064.064 0 00-.024.018c-.01.01-.026.018-.035.018-.01 0-.017.006-.017.013 0 .005-.005.009-.01.005-.006-.004-.013-.002-.016.003a5.63 5.63 0 01-.45.265.058.058 0 01-.035.018c-.01 0-.016.006-.016.013 0 .006-.005.008-.012.005-.006-.004-.012-.002-.012.003 0 .01-.058.043-.069.038-.002-.001-.008.003-.012.01-.014.022-.057.026-.076.008-.01-.011-.019-.017-.019-.013 0 .008-.426-.24-.434-.253a2.81 2.81 0 01-.341-.197.915.915 0 01-.183-.108c-.003-.005-.01-.007-.016-.003s-.01 0-.01-.005c0-.007-.007-.013-.017-.013-.009 0-.025-.01-.037-.021-.012-.01-.021-.018-.021-.014a3.416 3.416 0 01-.289-.163.921.921 0 00-.072-.043.228.228 0 01-.068-.043c0-.005-.004-.008-.008-.007-.016.004-.074-.028-.074-.04a.007.007 0 00-.009-.007c-.016.004-.073-.03-.073-.04 0-.008-.004-.01-.007-.007a2.964 2.964 0 01-.376-.215c-.02-.001-.063-.025-.063-.035 0-.005-.003-.009-.008-.007a.59.59 0 01-.168-.097c0-.015.066-.06.075-.05.004.004.007.002.007-.005 0-.01.059-.043.07-.038a.638.638 0 01.107-.07c.047-.026.095-.053.105-.06a4.449 4.449 0 01.327-.184c.01-.016.59-.348.601-.346.005.002.01-.001.01-.006s.03-.025.067-.043a.922.922 0 00.073-.042c.01-.012.28-.165.285-.161.002.002.013-.006.025-.018.011-.01.027-.02.036-.02.008 0 .018-.004.02-.009a4.78 4.78 0 01.27-.162l.264-.153.316.182a6.331 6.331 0 01.338.202c.015 0 .501.28.51.294.004.006.01.01.012.01.01-.005.07.028.07.037a4.753 4.753 0 01.447.258c.002.006.008.01.01.01.01-.005.07.028.07.037a2.097 2.097 0 01.302.175c.013.034.05-.017.18-.245.082-.14.199-.345.262-.454a5.037 5.037 0 01.149-.252c.012-.022.035-.068.054-.1l.064-.11c.027-.048.032-.091.007-.076-.005.004-.01 0-.01-.006 0-.007-.007-.013-.017-.013a.058.058 0 01-.035-.018 5.98 5.98 0 01-.454-.265c-.003-.007-.009-.01-.011-.01-.01.005-.07-.028-.07-.037 0-.006-.004-.007-.01-.004-.007.004-.013.002-.013-.004a.013.013 0 00-.012-.013 9.646 9.646 0 01-.593-.341.344.344 0 01-.121-.08c0-.012.198-.13.215-.129a5.24 5.24 0 01.452-.261.57.57 0 01.164-.094 4.417 4.417 0 01.42-.244.013.013 0 00.015-.012c0-.006.004-.01.01-.006s.013.002.015-.003a.528.528 0 01.15-.086c0 .004.005.002.01-.005a.42.42 0 01.131-.077c0 .004.006-.002.013-.013.01-.017.005-.033-.022-.076a18.163 18.163 0 01-.387-.681 3.6 3.6 0 01-.211-.367.257.257 0 01-.04-.058c-.018-.029-.04-.053-.05-.053-.01 0-.018.003-.018.008 0 .008-.06.038-.07.035-.002-.001-.007.002-.01.01a5.984 5.984 0 01-.454.264.058.058 0 01-.036.019c-.01 0-.016.006-.016.013 0 .006-.005.01-.01.006-.006-.005-.013-.003-.016.002a4.364 4.364 0 01-.443.258c0 .012-.059.043-.073.04-.005-.002-.009.002-.009.007 0 .01-.06.042-.07.037-.002-.001-.007.004-.01.01a3.543 3.543 0 01-.327.19l-.027.01-.002-.829-.004-.828-.717-.004-.719-.002V4.92l-.134.077c-.074.042-.14.077-.147.077-.006 0-.012.005-.012.01 0 .007-.018.018-.04.027-.023.008-.042.02-.042.025 0 .005-.004.007-.01.004-.006-.005-.013-.002-.015.002-.005.013-.39.237-.407.237a.013.013 0 00-.013.013c0 .006-.005.01-.01.006-.007-.005-.014-.003-.016.002a9.58 9.58 0 01-.593.345 1.387 1.387 0 01-.236.136 2.77 2.77 0 01-.288.166c-.004 0-.015.007-.025.017-.01.01-.025.018-.035.018-.01 0-.016.006-.016.013 0 .006-.005.01-.01.006-.007-.005-.014-.003-.016.002-.007.02-.263.16-.281.157-.02-.003-.021-.077-.021-1.355 0-1.272 0-1.352.02-1.368a2.994 2.994 0 01.343-.195c0-.01.06-.042.07-.037.001 0 .007-.004.01-.01.011-.015.354-.213.354-.204a10.343 10.343 0 01.601-.348c.005 0 .018-.008.027-.018.01-.01.026-.018.035-.018.01 0 .017-.006.017-.013 0-.006.004-.01.01-.006.006.005.013.003.015-.002a6.51 6.51 0 01.516-.299c.005.002.01-.001.01-.006 0-.011.058-.043.073-.04.012.004.01-.007-.006-.052-.008-.021-.017-.039-.022-.039-.004 0-.014-.018-.023-.039a.223.223 0 00-.023-.043 8.73 8.73 0 01-.293-.514c0-.008-.004-.013-.01-.013s-.017-.018-.026-.04a.171.171 0 00-.022-.042 7.66 7.66 0 01-.191-.324.698.698 0 01-.055-.106c0-.037-.048-.022-.187.057a.997.997 0 01-.156.082c-.005-.001-.009.002-.009.007 0 .012-.059.043-.073.04-.006-.001-.01.002-.01.007 0 .01-.059.042-.068.037-.003 0-.008.003-.012.01-.01.015-.435.26-.435.25a3.391 3.391 0 01-.46.258c-.02-.003-.02-.057-.02-.94V0H6.32l.004.925z" fill="#00B2FF"/></svg>