<svg width="25" height="25" fill="none" xmlns="http://www.w3.org/2000/svg"><path d="M17.552 0H7.448C3.34 0 0 3.341 0 7.448v10.104C0 21.66 3.341 25 7.448 25h10.104C21.66 25 25 21.659 25 17.552V7.448C25 3.34 21.659 0 17.552 0zm4.933 17.552a4.933 4.933 0 01-4.933 4.933H7.448a4.933 4.933 0 01-4.933-4.933V7.448a4.933 4.933 0 014.933-4.933h10.104a4.933 4.933 0 014.933 4.933v10.104z" fill="url(#paint0_linear_1_993)"/><path d="M12.5 6.034A6.473 6.473 0 006.034 12.5c0 3.565 2.9 6.466 6.466 6.466 3.565 0 6.466-2.9 6.466-6.466 0-3.565-2.9-6.466-6.466-6.466zm0 10.417a3.95 3.95 0 110-7.902 3.95 3.95 0 010 7.902z" fill="url(#paint1_linear_1_993)"/><path d="M18.978 7.632a1.55 1.55 0 100-3.099 1.55 1.55 0 000 3.1z" fill="url(#paint2_linear_1_993)"/><defs><linearGradient id="paint0_linear_1_993" x1="12.5" y1="24.927" x2="12.5" y2=".194" gradientUnits="userSpaceOnUse"><stop stop-color="#E09B3D"/><stop offset=".3" stop-color="#C74C4D"/><stop offset=".6" stop-color="#C21975"/><stop offset="1" stop-color="#7024C4"/></linearGradient><linearGradient id="paint1_linear_1_993" x1="12.5" y1="24.927" x2="12.5" y2=".194" gradientUnits="userSpaceOnUse"><stop stop-color="#E09B3D"/><stop offset=".3" stop-color="#C74C4D"/><stop offset=".6" stop-color="#C21975"/><stop offset="1" stop-color="#7024C4"/></linearGradient><linearGradient id="paint2_linear_1_993" x1="18.978" y1="24.927" x2="18.978" y2=".194" gradientUnits="userSpaceOnUse"><stop stop-color="#E09B3D"/><stop offset=".3" stop-color="#C74C4D"/><stop offset=".6" stop-color="#C21975"/><stop offset="1" stop-color="#7024C4"/></linearGradient></defs></svg>