<svg width="94" height="75" fill="none" xmlns="http://www.w3.org/2000/svg"><path d="M9.445.63c-1.18.227-1.43.757-1.43 2.878 0 1.59.25 2.5.622 2.197.373-.227.622-1.288.622-2.348 0-.985.31-1.818.621-1.818.373 0 .621 1.06.621 2.348 0 1.288.249 2.12.622 1.818.745-.53.87-4.696.186-5.075-.31-.152-1.118-.152-1.864 0zM50.767.554c-.124.379-.062 1.818.186 3.257l.373 2.65.124-3.256c.063-2.954-.186-3.939-.683-2.651zm7.705 2.499c0 1.894.187 2.727.31 1.894.187-.833.622-1.742 1.057-2.045.497-.455.497-.606-.062-.606-.373 0-.87-.606-.994-1.363-.187-.682-.31.227-.31 2.12zm26.782 0c0 1.894.124 2.651.248 1.667.125-.91.125-2.424 0-3.409-.124-.909-.248-.151-.248 1.742zm-72.267-.075c0 2.5 1.367 3.484 3.169 2.348C18.269 3.886 17.336.78 14.789.78c-1.554 0-1.802.303-1.802 2.197zm3.107-.076c0 1.818-.497 2.424-1.616 1.893-1.367-.606-1.056-3.257.373-3.257.808 0 1.243.53 1.243 1.364zm2.92-1.591c-.186.38-.497 1.591-.683 2.879-.373 2.196-.311 2.272 1.802 2.272 1.926 0 2.175-.227 1.926-1.515-.186-.833-.373-2.12-.373-2.878 0-1.288-2.113-1.894-2.672-.758zm2.05 2.121c0 1.212-.372 1.894-.993 1.894-.684 0-.87-.379-.622-1.212.187-.682.373-1.515.373-1.894 0-.378.31-.681.621-.681.373 0 .622.833.622 1.893zm2.921-1.363c-.124.757-.497 2.045-.807 2.878-.435 1.364-.373 1.364.559.455.559-.53 1.491-.833 1.988-.53.994.454 1.119.151.56-2.424-.436-1.97-1.865-2.197-2.3-.379zM27.9 3.584c.062 2.575.124 2.726.87 1.515.435-.682 1.119-1.288 1.553-1.288.373 0 .684-.682.684-1.515 0-1.136-.435-1.515-1.553-1.515-1.367 0-1.554.303-1.554 2.803zm2.486-1.288c0 .379-.249.757-.56.757-.372 0-.807-.378-.994-.757-.186-.454.062-.757.56-.757.559 0 .994.303.994.757zm1.615-.379c-.621 1.97-.435 2.575.808 3.409 1.864 1.136 3.293.151 3.045-2.197-.124-1.515-.56-2.045-1.802-2.196-1.056-.152-1.802.227-2.05.984zm3.231 1.288c-.124.984-.62 1.742-1.118 1.742-.497 0-.994-.758-1.118-1.742-.187-1.288.124-1.667 1.118-1.667.994 0 1.305.38 1.118 1.667zm2.051-1.136c-.062 1.212.31 1.742 1.118 1.742.684 0 1.368.606 1.492 1.288.186.757.31 0 .31-1.667 0-1.666-.124-2.423-.31-1.742-.124.758-.684 1.364-1.119 1.364-.435 0-.994-.606-1.118-1.364-.249-.984-.31-.833-.373.379zm4.287.909c0 1.287.311 2.5.622 2.726.373.303.621-.606.621-2.196 0-1.515-.248-2.727-.621-2.727-.31 0-.621.985-.621 2.197zm2.61-1.061c-.435.682-.497 1.136-.124 1.136.31 0 .622.53.622 1.288 0 1.97.807.454.931-1.666.063-2.121-.248-2.348-1.429-.758zm2.361 1.515c0 2.12.25 2.651 1.181 2.651.621 0 1.492-.454 1.864-.985.497-.833.311-1.439-.87-2.65-2.05-2.197-2.175-2.122-2.175.984zm2.486 1.212c0 .379-.248.682-.621.682-.311 0-.622-.53-.622-1.212 0-.606.311-.91.622-.682.373.227.621.757.621 1.212zm3.728-1.212c0 2.272.187 2.651 1.43 2.651 1.056 0 1.18-.151.434-.757-1.18-.91-1.18-3.257 0-3.94.684-.378.56-.53-.434-.53-1.243-.075-1.43.304-1.43 2.576zm8.079-.379c0 1.212.31 2.273.62 2.273.374 0 .622-1.06.622-2.273 0-1.287-.248-2.272-.621-2.272-.31 0-.621.985-.621 2.272zm3.106-2.045c0 .076-.248 1.288-.559 2.576-.559 2.272-.497 2.348.56 1.59.87-.682 1.367-.682 2.236.227.995.985 1.057.91.622-.454-.31-.833-.684-2.12-.808-2.878-.186-.682-.746-1.288-1.18-1.288-.498 0-.87.076-.87.227zm3.729 2.5c0 2.348.186 2.65 1.367 2.424 1.988-.303 2.237-2.879.435-3.409-1.367-.454-1.367-.53-.187-1.06 1.119-.53 1.057-.606-.186-.606-1.243-.076-1.43.303-1.43 2.65zm2.112 1.136c-.186.379-.621.53-.932.227-.31-.227-.435-.757-.186-1.136.186-.379.621-.53.932-.227.31.227.435.757.186 1.136zm2.051-2.954c-.497 1.742.684 4.393 1.988 4.393 1.492 0 2.735-2.424 2.175-4.09-.435-1.44-3.728-1.667-4.163-.303zm3.293 1.288c0 1.439-1.429 2.65-2.112 1.817-.87-1.136-.311-3.257.87-3.257.807 0 1.242.53 1.242 1.44zm1.865 0c0 2.045.062 2.12 1.553 1.363 2.05-1.212 2.05-3.56 0-3.56-1.305 0-1.553.379-1.553 2.197zm2.485-.682c0 .379-.435.757-.932.757-.497 0-.932-.378-.932-.757 0-.454.435-.757.932-.757.497 0 .932.303.932.757zm1.865 1.06c0 2.727.31 3.106 2.112 2.273 1.056-.53 1.367-2.576.435-2.576-.31 0-1.057-.53-1.554-1.212-.932-1.06-.994-.909-.994 1.515zm1.863 1.212c0 .379-.248.758-.621.758-.31 0-.621-.38-.621-.758 0-.454.31-.757.62-.757.374 0 .622.303.622.757zM66.115 18.884c-1.491 3.03-4.225 20.375-3.666 23.254.497 2.423 2.92 2.5 3.853 0 .372-.985.994-3.863 1.429-6.439.373-2.5.994-4.62 1.243-4.62.31 0 .559-.303.559-.682 0-.378-.56-.53-1.18-.303-.809.227-1.43-.151-1.865-1.212-.621-1.287-.435-2.12.932-4.544.87-1.667 1.491-3.636 1.367-4.393-.248-1.515-2.05-2.273-2.672-1.06zm2.175 1.364c0 .378-.31 1.136-.621 1.742-.497.909-.622.833-.622-.606 0-.91.311-1.666.622-1.666.373 0 .621.227.621.53zm-1.43 14.088c-.496 4.469-1.553 7.574-2.36 6.968-.311-.303-.498-1.439-.311-2.5.124-1.135.435-3.332.683-4.922.249-1.894.684-2.803 1.368-2.803.807 0 .932.606.62 3.257zM11.744 22.671c0 .91.31 1.591.621 1.591.373 0 .622 1.136.622 2.575 0 1.44.31 3.56.621 4.62.56 1.819.932 2.046 3.17 1.743l2.485-.303-.435 5.302c-.373 4.241-.249 5.15.435 4.847.994-.378 1.677-2.954 1.74-6.665.062-1.44.807-5.302 1.677-8.56.87-3.256 1.492-6.059 1.305-6.286-.808-.984-2.361.985-3.231 4.242-.932 3.484-2.796 5.756-2.796 3.408 0-.757-.622-1.136-1.802-1.136-1.74 0-1.864-.227-2.05-3.181-.125-2.348-.498-3.333-1.244-3.484-.807-.152-1.118.227-1.118 1.287zm39.334-.606c-.435.53-2.237.758-4.785.53-4.039-.303-4.101-.303-4.101 1.667 0 1.06-.684 5.605-1.492 10.225-1.429 8.105-1.49 9.468-.372 9.468.745 0 1.677-3.863 2.734-11.589.497-3.635 1.118-6.968 1.305-7.347.497-.984 5.903-.984 5.903-.075 0 .454-.435 3.03-.994 5.832-.995 5.378-.995 10.604.062 10.377.373-.076 1.056-3.333 1.553-7.196.56-3.863 1.305-7.802 1.74-8.71 1.43-3.182.31-5.454-1.553-3.182zM31.877 32.594c.31 2.575.124 3.484-1.18 5.605-1.244 1.97-1.927 2.424-3.108 2.12-1.926-.454-1.926-1.211 0-4.09 1.74-2.499 1.989-4.771.622-5.377-1.989-.985-4.723 6.287-3.728 10.074.62 2.5 4.908 1.742 6.897-1.212l1.491-2.197 1.18 1.742c.684.91 1.306 2.121 1.43 2.575.124.455.56.606.994.303.56-.378.497-1.211-.186-3.256-1.057-3.106-.808-4.697.932-6.666.683-.757 1.243-1.666 1.243-2.045 0-1.136-1.678-.606-2.859.985l-1.118 1.515-.497-1.515c-.249-.91-.932-1.59-1.492-1.59-.87 0-.932.53-.621 3.029zm-3.728 1.136c-.249.606-.622 1.136-.932 1.136-.249 0-.373-.53-.187-1.136.249-.606.621-1.136.932-1.136.249 0 .373.53.187 1.136zm48.591 6.135c-.558 5.226-.869 9.77-.683 9.998.622.758 1.43-1.363 1.864-5.075.311-2.348.933-3.938 1.927-4.999.87-.833 1.926-2.878 2.423-4.544.684-2.576.684-3.182 0-4.09-.683-.834-1.056-.91-1.802-.152-.621.606-.994.682-1.305.076-.932-1.894-1.429-.152-2.423 8.786zm4.848-5.984c-.56 2.954-.932 3.56-1.492 2.424-.559-.985.498-4.469 1.367-4.469.311 0 .311.909.125 2.045zm-21.998.455c0 3.105-2.05 6.665-3.044 5.453-.497-.605-.31-1.666.559-3.787 1.491-3.635 1.491-3.408.062-3.408-1.491 0-3.418 4.772-2.92 7.271.31 1.364.807 1.818 2.112 1.818 2.05 0 2.797-.606 3.79-2.802.87-2.045.933-6.06.063-6.666-.373-.303-.622.606-.622 2.121zm13.236-1.666c-1.615.681-3.542 4.847-3.045 6.513.249.682.87.985 1.616.758.746-.227 1.491.075 1.802.833.932 1.97 1.74.303 2.113-4.166.373-4.242-.125-5-2.486-3.939zm1.056 1.969c0 .378-.559 1.439-1.242 2.5-1.119 1.741-1.243 1.817-1.243.302s1.056-3.333 1.988-3.333c.249 0 .497.228.497.53z" fill="#fff"/><path d="M6.773 18.884c0 2.5.31 4.772.621 5 .373.302.622-1.288.622-4.09v-4.621l38.96.151 38.961.228-.186 3.863c-.062 2.196.124 4.166.497 4.468.435.303.684-1.136.684-4.468v-5H6.773v4.47zm0 32.646v4.544h80.159V51.53c0-2.5-.249-4.545-.622-4.545-.31 0-.621 1.894-.621 4.166v4.166H8.016V51.15c0-2.272-.249-4.166-.622-4.166s-.621 2.045-.621 4.545zM0 64.406c0 2.197.062 2.424.621 1.288.435-.833.435-1.742 0-2.651C.062 61.983 0 62.21 0 64.406zm2.548 0c0 1.439.124 2.045.31 1.287.125-.681.125-1.893 0-2.65-.186-.682-.31-.076-.31 1.363zm3.107-.076c-.56 2.045-.56 2.12 1.18 2.045.995-.076 1.802-.151 1.802-.227 0-.757-1.553-4.014-1.926-4.014-.248 0-.746.984-1.056 2.196zm1.429.076c.186.378.062.757-.249.757-.372 0-.683-.379-.683-.757 0-.455.124-.758.248-.758.187 0 .497.303.684.758zm3.479.152c.125 2.348.125 2.348.373.378.125-1.136.622-2.045 1.119-2.045s.994.91 1.118 2.045c.249 1.97.249 1.97.373-.378.062-2.121-.124-2.424-1.491-2.424s-1.554.303-1.492 2.424zm5.531-2.424c-.497 1.742-.56 4.544-.062 4.544.932 0 1.18-.984.621-3.03-.248-1.06-.497-1.742-.56-1.514zm1.678.908c-.311 1.364.186 3.636.87 3.636.745 0 .745-3.56 0-4.09-.311-.303-.684 0-.87.454zm3.79 0c.31.53.746 1.667.87 2.5.186 1.06.373.833.56-.985.31-2.045.123-2.423-.87-2.423-.87 0-1.057.227-.56.908zm4.536 1.364c0 1.742.124 2.272.497 1.59.373-.681.684-.757.932-.151.249.454.746.833 1.119.833.435 0 .435-.379-.062-1.06-.373-.53-.56-1.666-.311-2.424.31-1.363.31-1.363-.56-.076-.931 1.364-.931 1.364-1.242 0-.186-.757-.31-.151-.373 1.288zm4.972 0c-.063 1.742.123 2.348.558 1.818.435-.53.435-1.44.063-2.651-.56-1.742-.622-1.667-.622.833zm2.174-1.591c-.248.379-.124 1.515.187 2.5.559 1.59.62 1.59.62-.758.063-2.424-.186-2.954-.807-1.742zm5.841 1.667c0 1.212.249 2.12.56 1.893.497-.379.186-4.242-.311-4.242-.125 0-.249 1.061-.249 2.349zm1.865-1.212c-.498.682-.498 1.136-.125 1.136s.808.606.932 1.288c.187.757.31.227.373-1.136.062-2.727-.062-2.879-1.18-1.288zm4.038-.53c.373.303.622 1.06.622 1.666 0 .606-.249 1.44-.622 1.742-.372.379-.124.53.498.379.62-.152 1.118-.455 1.118-.833-.062-.303-.062-1.212-.062-2.045 0-.91-.435-1.515-1.056-1.515-.622 0-.87.303-.498.606zm6.525 1.818c0 1.363.248 2.12.497 1.666.248-.455.932-1.06 1.553-1.288 1.492-.682 1.057-2.348-.683-2.65-1.18-.228-1.367.075-1.367 2.272zm1.864-.91c0 .38-.249.758-.622.758-.31 0-.62-.379-.62-.757 0-.455.31-.758.62-.758.373 0 .622.303.622.758zm3.107.758c0 1.666.31 2.272 1.118 2.272.56 0 .808-.303.435-.606-.994-.833-1.056-2.575-.186-3.257.621-.53.56-.681-.249-.681-.807 0-1.118.606-1.118 2.272zm4.412-1.212c-.994 1.44-.187 3.484 1.429 3.408 1.18 0 1.18-.075-.249-.757l-1.553-.757 1.491-1.515c.994-.985 1.119-1.44.497-1.44-.497 0-1.242.455-1.615 1.061zm4.66-.454c.435.303.87 1.363 1.056 2.423l.249 1.894.124-2.045c0-1.06.435-2.197.87-2.348.373-.227-.062-.455-1.118-.455-.994 0-1.554.228-1.18.53zm4.66.757c-1.118 2.575 1.492 4.317 3.045 2.045.622-.909.622-1.363 0-2.272-1.056-1.515-2.299-1.44-3.044.227zm2.424.909c0 .833-.249 1.515-.56 1.515-.87 0-1.428-1.364-.993-2.273.62-1.287 1.553-.833 1.553.758zm3.107.152c0 1.363.248 2.12.497 1.666.249-.455.932-1.06 1.615-1.288.933-.454.995-.757.373-1.666-1.367-1.97-2.485-1.364-2.485 1.288zm1.864-.91c0 .38-.249.758-.621.758-.311 0-.622-.379-.622-.757 0-.455.31-.758.622-.758.372 0 .621.303.621.758zm3.169.455c-.373 1.136-.56 2.197-.435 2.424.186.227.621-.454.932-1.44.373-1.211.621-1.363.621-.605.063.681.435 1.439.933 1.666.745.379.807.076.248-1.818-.746-2.726-1.305-2.802-2.299-.227zm4.909.454c0 1.742.186 2.197.56 1.44.496-.91.248-3.864-.311-3.864-.125 0-.249 1.137-.249 2.424zm2.299-.984c-.124.757-.062 1.893.249 2.423.372.758.559.303.559-1.439 0-2.727-.31-3.181-.808-.984zm3.356.53c-.373 1.136-.56 2.197-.435 2.424.186.227.621-.454.932-1.44.559-1.741.745-1.741.932.228 0 .454.373.985.808 1.136.559.227.559-.227 0-1.97-.87-2.877-1.243-2.953-2.237-.378zm-66.861 6.741c.248.833.497 1.97.497 2.424.062 1.439.31 1.212 1.367-1.288.559-1.287.683-2.272.31-2.272-.31 0-.621.606-.621 1.288 0 1.136-.124 1.06-.994-.228-.932-1.439-.995-1.439-.56.076zm7.145 1.136c0 1.666.311 2.272 1.119 2.272 1.615 0 1.864-.454 1.491-2.65-.435-2.879-2.61-2.576-2.61.378zm1.865 0c0 .833-.249 1.515-.498 1.515-.248 0-.497-.682-.497-1.515 0-.833.249-1.515.498-1.515.248 0 .497.682.497 1.515zm3.355-.151c-.684 2.12-.621 2.196 1.056 2.12.994-.075 1.802-.15 1.802-.227 0-.681-1.553-4.014-1.802-4.014-.248 0-.683.985-1.056 2.12zm4.972-.985c-.622 1.818.248 3.409 1.74 3.333h1.428l-1.367-.682c-.808-.378-1.429-1.06-1.429-1.514 0-.455.621-1.137 1.43-1.515l1.366-.682H43.56c-.745-.076-1.553.454-1.74 1.06zm8.264-.606a20.42 20.42 0 00-.622 2.5c-.373 1.666-.186 1.893 1.492 1.893 1.242 0 1.74-.303 1.491-.984-.186-.606-.31-1.667-.31-2.5 0-1.363-1.492-2.045-2.051-.909zm1.18 3.03c-.683.833-1.056-.303-.559-1.742.435-1.364.497-1.364.684-.076.124.758.062 1.59-.125 1.818zm3.604-2.5c-.621 1.97.249 3.636 1.74 3.333 1.057-.151 1.43-.757 1.43-2.12 0-1.364-.373-1.97-1.43-2.122-.807-.151-1.553.228-1.74.91zm2.859 1.212c0 1.59-1.492 2.121-2.175.758-.497-1.06.186-2.273 1.305-2.273.497 0 .87.682.87 1.515zm2.485 0c0 1.212.249 2.272.621 2.272.311 0 .373-.605.187-1.363-.373-1.136-.31-1.136.621-.227 1.616 1.59 1.989.454.498-1.364-1.74-2.12-1.927-2.045-1.927.682zm3.48-1.59c-.249.379-.124 1.515.186 2.5.56 1.59.622 1.59.622-.758.062-2.424-.187-2.954-.808-1.742zm3.977.076c0 .378.31.757.621.757.373 0 .621-.379.621-.757 0-.455-.248-.758-.62-.758-.312 0-.622.303-.622.758zm-.87 2.726c-.186.53.435.833 1.491.757.932-.075 1.616-.454 1.43-.833-.311-1.06-2.548-1.06-2.921.076z" fill="#fff"/></svg>