<svg width="74" height="55" fill="none" xmlns="http://www.w3.org/2000/svg"><path d="M42.55 51.209c2.798-.475 7.764-2.812 12.164-5.732 3.821-2.53 6.255-4.758 8.279-7.581 2.861-3.986 4.983-9.122 5.827-14.104.3-1.804.353-2.434.353-4.667 0-1.85-.018-2.199-.133-3.035-.342-2.468-.885-4.3-1.862-6.27-.578-1.157-1.029-1.9-1.775-2.88-1.688-2.24-4.55-4.117-7.475-4.913a14.205 14.205 0 00-9.973.893c-4.006 1.941-6.584 5.514-7.168 9.924-.209 1.597-.035 4.999.352 6.814.827 3.882 3.452 6.442 9.331 9.087 2.081.94 3.36 1.724 4.25 2.606.803.801 1.115 1.425 1.167 2.319.093 1.574-1.046 3.47-4.087 6.814-1.636 1.804-2.677 2.657-5.348 4.392-.601.39-1.722 1.116-2.486 1.615-1.584 1.025-2.422 1.672-2.85 2.193-.428.515-.549.79-.578 1.305-.017.384 0 .464.145.745.225.44.398.515 1.144.51a9.41 9.41 0 00.723-.035zm-35.497-.172c4.266-.779 11.973-5.004 16.795-9.207 3.798-3.31 7.07-8.853 8.73-14.768 1.398-5.01 1.549-9.775.433-14-.81-3.053-2.532-6.065-4.48-7.851C24.043 1.122 17.76.17 12.4 2.777 8.56 4.644 5.96 8.21 5.348 12.43c-.26 1.775-.087 5.217.346 7.164.85 3.762 3.475 6.333 9.02 8.835 3.855 1.741 5.41 3.052 5.694 4.816.173 1.06-.388 2.474-1.636 4.146-.816 1.093-2.608 3.155-3.614 4.168-.977.98-2.688 2.205-6.215 4.45-2.248 1.425-3.341 2.342-3.717 3.098-.139.28-.168.406-.168.767 0 .355.024.475.145.681.249.43.376.493 1.087.504.34 0 .682-.006.763-.023z" fill="#BD8988"/></svg>