<svg width="25" height="25" fill="none" xmlns="http://www.w3.org/2000/svg"><path d="M0 25l2.15-6.45a12.22 12.22 0 01-1.719-6.266C.431 5.5 5.931 0 12.715 0 19.5 0 25 5.5 25 12.284c0 6.785-5.5 12.285-12.284 12.285A12.23 12.23 0 017 23.159L0 25z" fill="#2CB742"/><path d="M20.553 16.373c-.567-1.072-2.66-2.298-2.66-2.298-.472-.27-1.044-.3-1.313.181 0 0-.68.815-.853.932-.79.535-1.521.515-2.26-.224l-1.715-1.716-1.716-1.716c-.739-.738-.76-1.47-.224-2.26.117-.172.932-.852.932-.852.48-.27.45-.84.18-1.314 0 0-1.225-2.092-2.297-2.659a1.175 1.175 0 00-1.38.208l-.758.758c-2.404 2.403-1.22 5.117 1.183 7.521l2.197 2.197 2.197 2.197c2.404 2.404 5.118 3.588 7.522 1.184l.758-.758c.364-.366.448-.926.207-1.381z" fill="#fff"/></svg>