<svg width="25" height="25" viewBox="0 0 25 25" fill="none" xmlns="http://www.w3.org/2000/svg">
<path d="M14.4141 0.0537128C12.959 0.190432 11.6699 0.786135 10.7324 1.74805C10.0928 2.39746 9.78027 2.94922 9.56543 3.78418C9.45801 4.21387 9.45801 4.27735 9.46777 6.3086L9.48242 8.39356L7.95898 8.40821L6.43555 8.42285L6.31836 8.55957L6.20117 8.69629V10.8594C6.20117 12.9736 6.20117 13.0273 6.30371 13.1543L6.40137 13.2813H7.86621H9.32617L9.33594 19.0186L9.35059 24.751L9.46289 24.8633L9.5752 24.9756H12.0654H14.5605L14.6533 24.8584C14.7412 24.7461 14.7461 24.585 14.7461 19.0625V13.3789H16.2988C17.1533 13.3789 17.9248 13.3594 18.0176 13.3301C18.1104 13.3057 18.2178 13.2373 18.252 13.1836C18.2861 13.1299 18.4229 12.1338 18.5645 10.9082L18.8135 8.73535L18.7158 8.60352C18.6621 8.53028 18.5645 8.45703 18.501 8.44238C18.4375 8.42285 17.5635 8.40821 16.5625 8.40332L14.7363 8.39844L14.7559 6.94336C14.7803 5.44922 14.7949 5.3125 15 5.01953C15.0488 4.94629 15.2148 4.8291 15.3711 4.75098L15.6494 4.61426L17.1289 4.59961L18.6035 4.58008L18.7012 4.45801C18.7939 4.33594 18.7988 4.25781 18.7988 2.33887C18.7988 0.95215 18.7842 0.307619 18.7451 0.224611C18.7109 0.156252 18.623 0.0781269 18.54 0.04883C18.3691 -0.00976372 15.0391 -0.00976372 14.4141 0.0537128Z" fill="#436EAB"/>
</svg>
