<svg width="13" height="25" viewBox="0 0 13 25" fill="none" xmlns="http://www.w3.org/2000/svg">
<path d="M8.21289 0.04883C6.75781 0.185549 5.46875 0.781252 4.53125 1.74317C3.8916 2.39258 3.5791 2.94434 3.36426 3.7793C3.25684 4.20899 3.25684 4.27246 3.2666 6.30371L3.28125 8.38867L1.75781 8.40332L0.234375 8.41797L0.117188 8.55469L0 8.69141V10.8545C0 12.9688 0 13.0225 0.102539 13.1494L0.200195 13.2764H1.66504H3.125L3.13477 19.0137L3.14941 24.7461L3.26172 24.8584L3.37402 24.9707H5.86426H8.35938L8.45215 24.8535C8.54004 24.7412 8.54492 24.5801 8.54492 19.0576V13.374H10.0977C10.9521 13.374 11.7236 13.3545 11.8164 13.3252C11.9092 13.3008 12.0166 13.2324 12.0508 13.1787C12.085 13.125 12.2217 12.1289 12.3633 10.9033L12.6123 8.73047L12.5146 8.59863C12.4609 8.52539 12.3633 8.45215 12.2998 8.4375C12.2363 8.41797 11.3623 8.40332 10.3613 8.39844L8.53516 8.39356L8.55469 6.93848C8.5791 5.44434 8.59375 5.30762 8.79883 5.01465C8.84766 4.94141 9.01367 4.82422 9.16992 4.7461L9.44824 4.60938L10.9277 4.59473L12.4023 4.5752L12.5 4.45313C12.5928 4.33106 12.5977 4.25293 12.5977 2.33399C12.5977 0.947268 12.583 0.302736 12.5439 0.219728C12.5098 0.151369 12.4219 0.0732441 12.3389 0.0439472C12.168 -0.0146465 8.83789 -0.0146465 8.21289 0.04883Z" fill="#136CD5"/>
</svg>
