<svg width="14" height="15" viewBox="0 0 14 15" fill="none" xmlns="http://www.w3.org/2000/svg">
<path d="M5.43047 0.156484C5.43047 0.171207 5.43967 0.309244 5.45071 0.463846C5.55196 1.84421 4.97026 3.51354 3.75164 5.33379C3.35771 5.92274 2.6582 6.84667 2.60481 6.84667C2.58825 6.84667 2.5772 6.80434 2.568 6.70311C2.51093 5.99452 2.46859 5.71109 2.36551 5.34299C2.30292 5.12581 2.18143 4.81845 2.0673 4.59207L2.01023 4.48164L1.99735 4.57366C1.90715 5.26201 1.71018 5.81415 1.1745 6.89268C0.727184 7.79452 0.590964 8.10004 0.441858 8.53072C0.0994661 9.52642 0.0552865 10.5792 0.322205 11.4295C0.406882 11.6964 0.620417 12.1344 0.789772 12.3865C1.27943 13.1172 2.03232 13.7908 3.12945 14.4773C3.35403 14.6172 3.6596 14.7976 3.67249 14.7976C3.67617 14.7976 3.64303 14.7129 3.59701 14.6099C3.4295 14.2252 3.28223 13.7356 3.21781 13.3528C3.18099 13.1246 3.18651 12.4565 3.22885 12.2485C3.34114 11.6816 3.52338 11.273 3.96702 10.5921C4.34623 10.0123 4.53399 9.66078 4.73648 9.14728C4.88927 8.75894 5.04205 8.26017 5.04389 8.1479C5.04389 8.08348 5.1028 8.12581 5.17275 8.24176C5.44519 8.69268 5.58325 9.36814 5.52435 9.97366C5.5133 10.0896 5.50778 10.1872 5.51146 10.1927C5.52251 10.2019 5.66977 10.0123 5.78758 9.83747C6.21465 9.20434 6.51471 8.37612 6.6454 7.47243C6.69879 7.09697 6.70247 6.53194 6.65277 6.25219C6.64356 6.20434 6.64724 6.18409 6.66197 6.18409C6.72824 6.18409 7.23999 6.61477 7.54924 6.93317C9.42503 8.85832 10.073 11.9319 9.11762 14.3632C9.0808 14.4553 9.0311 14.5712 9.00717 14.6191C8.98324 14.6688 8.95562 14.7295 8.94458 14.7534L8.92801 14.8013L9.03294 14.7405C9.22622 14.6319 9.74349 14.2988 9.96071 14.1424C11.6524 12.9295 12.6004 11.5399 12.871 9.8798C12.9263 9.54299 12.9299 8.72765 12.8802 8.36507C12.7183 7.21661 12.2746 6.07918 11.542 4.93256C11.1223 4.2755 10.5442 3.55771 10.0859 3.12151C9.97175 3.01477 9.87603 2.92826 9.87419 2.93194C9.87235 2.93378 9.89444 3.00924 9.92389 3.09759C10.0362 3.4436 10.0601 3.61108 10.0601 4.07673C10.0583 4.45035 10.0528 4.51845 10.0178 4.66201C9.93678 4.98593 9.82449 5.21599 9.64041 5.43317C9.541 5.5528 9.50971 5.54912 9.47105 5.41477C8.99796 3.7252 8.24507 2.36139 7.2363 1.36385C6.78715 0.920287 6.32326 0.574275 5.83176 0.314766C5.55748 0.169367 5.43047 0.119674 5.43047 0.156484Z" fill="#FF6C01"/>
</svg>
