<svg width="14" height="15" viewBox="0 0 14 15" fill="none" xmlns="http://www.w3.org/2000/svg">
<path d="M5.43047 0.156453C5.43047 0.171177 5.43967 0.309214 5.45071 0.463816C5.55196 1.84418 4.97026 3.51351 3.75164 5.33375C3.35771 5.92271 2.6582 6.84664 2.60481 6.84664C2.58825 6.84664 2.5772 6.80431 2.568 6.70308C2.51093 5.99449 2.46859 5.71105 2.36551 5.34296C2.30292 5.12578 2.18143 4.81842 2.0673 4.59204L2.01023 4.48161L1.99735 4.57363C1.90715 5.26198 1.71018 5.81412 1.1745 6.89265C0.727184 7.79449 0.590964 8.10001 0.441858 8.53069C0.0994661 9.52639 0.0552865 10.5792 0.322205 11.4295C0.406882 11.6963 0.620417 12.1344 0.789772 12.3865C1.27943 13.1172 2.03232 13.7908 3.12945 14.4773C3.35403 14.6172 3.6596 14.7976 3.67249 14.7976C3.67617 14.7976 3.64303 14.7129 3.59701 14.6098C3.4295 14.2252 3.28223 13.7356 3.21781 13.3528C3.18099 13.1246 3.18651 12.4565 3.22885 12.2485C3.34114 11.6816 3.52338 11.273 3.96702 10.592C4.34623 10.0123 4.53399 9.66075 4.73648 9.14725C4.88927 8.75891 5.04205 8.26013 5.04389 8.14786C5.04389 8.08345 5.1028 8.12578 5.17275 8.24173C5.44519 8.69265 5.58325 9.36811 5.52435 9.97363C5.5133 10.0896 5.50778 10.1871 5.51146 10.1926C5.52251 10.2019 5.66977 10.0123 5.78758 9.83744C6.21465 9.20431 6.51471 8.37609 6.6454 7.4724C6.69879 7.09694 6.70247 6.53191 6.65277 6.25216C6.64356 6.20431 6.64724 6.18406 6.66197 6.18406C6.72824 6.18406 7.23999 6.61474 7.54924 6.93314C9.42503 8.85829 10.073 11.9319 9.11762 14.3632C9.0808 14.4552 9.0311 14.5712 9.00717 14.619C8.98324 14.6687 8.95562 14.7295 8.94458 14.7534L8.92801 14.8012L9.03294 14.7405C9.22622 14.6319 9.74349 14.2988 9.96071 14.1423C11.6524 12.9295 12.6004 11.5399 12.871 9.87977C12.9263 9.54296 12.9299 8.72762 12.8802 8.36504C12.7183 7.21658 12.2746 6.07915 11.542 4.93253C11.1223 4.27547 10.5442 3.55768 10.0859 3.12148C9.97175 3.01474 9.87603 2.92823 9.87419 2.93191C9.87235 2.93375 9.89444 3.00921 9.92389 3.09756C10.0362 3.44357 10.0601 3.61105 10.0601 4.0767C10.0583 4.45032 10.0528 4.51842 10.0178 4.66197C9.93678 4.9859 9.82449 5.21596 9.64041 5.43314C9.541 5.55277 9.50971 5.54909 9.47105 5.41474C8.99796 3.72517 8.24507 2.36136 7.2363 1.36382C6.78715 0.920257 6.32326 0.574244 5.83176 0.314735C5.55748 0.169336 5.43047 0.119643 5.43047 0.156453Z" fill="#C4C4C4"/>
</svg>
