<svg width="14" height="15" viewBox="0 0 14 15" fill="none" xmlns="http://www.w3.org/2000/svg">
<path d="M6.32357 0.924609C6.32592 1.8 6.32474 1.85039 6.30599 1.85391C6.28606 1.85859 6.23448 1.83398 6.21924 1.81289C6.21573 1.80703 6.20752 1.80352 6.20166 1.80352C6.18759 1.80469 5.78318 1.57031 5.7738 1.55625C5.77029 1.54922 5.76208 1.54453 5.75622 1.54453C5.73512 1.54336 5.69292 1.51992 5.69292 1.50937C5.69292 1.50352 5.68823 1.50234 5.6812 1.50586C5.67534 1.50937 5.66948 1.50703 5.66948 1.50117C5.66948 1.49414 5.66244 1.48828 5.65307 1.48828C5.64369 1.48828 5.62845 1.48125 5.62024 1.47305C5.61204 1.46484 5.60032 1.45664 5.59328 1.4543C5.57101 1.44961 5.08923 1.16836 5.08103 1.15547C5.07634 1.14844 5.07165 1.14609 5.07165 1.15195C5.07165 1.15664 5.05172 1.14844 5.02828 1.1332C5.00366 1.11797 4.95912 1.09219 4.92864 1.07461L4.87472 1.04297L4.78211 1.20469C4.73054 1.29258 4.59456 1.52812 4.47851 1.72851C4.36364 1.92773 4.26634 2.09414 4.26283 2.09766C4.25931 2.10117 4.24876 2.12109 4.24055 2.14102C4.23118 2.16211 4.22063 2.17969 4.21476 2.17969C4.2089 2.17969 4.20422 2.18672 4.20422 2.19609C4.20422 2.2043 4.19367 2.22539 4.18077 2.24062L4.15733 2.27109L4.40701 2.41406C4.54298 2.49375 4.65903 2.56289 4.66255 2.56875C4.66607 2.57461 4.6731 2.5793 4.67779 2.57812C4.68834 2.57578 4.98256 2.74453 4.98725 2.75625C4.9896 2.76094 4.99663 2.76562 5.00366 2.76562C5.0189 2.76562 5.18184 2.86055 5.18653 2.87344C5.18887 2.87812 5.1959 2.88047 5.20177 2.87578C5.20763 2.87226 5.21232 2.87578 5.21232 2.88164C5.21232 2.88867 5.21935 2.89453 5.22873 2.89453C5.2381 2.89453 5.25452 2.90273 5.26389 2.91328C5.27444 2.92266 5.28265 2.92852 5.28265 2.925C5.28265 2.9168 5.70933 3.16523 5.71754 3.17812C5.72106 3.18516 5.72809 3.18867 5.73278 3.1875C5.74098 3.18516 6.23566 3.46641 6.29427 3.50625L6.32592 3.52851V4.89844C6.32592 6.09961 6.32357 6.26836 6.30833 6.27422C6.29192 6.28008 5.84883 6.03281 5.83242 6.00937C5.8289 6.00234 5.82069 5.99766 5.81483 5.99766C5.7949 5.99648 5.75153 5.97305 5.75153 5.9625C5.75153 5.95781 5.74802 5.9543 5.74333 5.95547C5.73161 5.95898 5.53702 5.84883 5.52764 5.83359C5.52412 5.82656 5.51592 5.82187 5.51006 5.82305C5.49599 5.82305 5.23224 5.6707 5.22287 5.65781C5.21935 5.65195 5.21232 5.64727 5.20763 5.64844C5.1959 5.65078 4.70358 5.36602 4.6942 5.35078C4.68951 5.34375 4.68482 5.34141 4.68482 5.34609C4.68482 5.35547 4.26048 5.11055 4.24993 5.09531C4.24641 5.08828 4.23821 5.08359 4.23235 5.08359C4.21125 5.08242 4.16905 5.05898 4.16905 5.04844C4.16905 5.04258 4.16436 5.04141 4.15733 5.04492C4.15147 5.04844 4.1456 5.04609 4.1456 5.04023C4.1456 5.0332 4.13857 5.02734 4.12919 5.02734C4.11982 5.02734 4.1034 5.01914 4.09403 5.00859C4.08348 4.99922 4.07527 4.99336 4.07527 4.99687C4.07527 5.00039 4.04245 4.98398 4.00259 4.95937L3.92875 4.91367L3.92523 3.67031L3.92288 2.42578H3.20198H2.48107L2.47872 3.25195L2.4752 4.07695L2.27007 3.95859C2.15754 3.89414 2.06141 3.83555 2.0579 3.82969C2.05438 3.82383 2.04618 3.81797 2.04031 3.81797C2.02039 3.8168 1.97702 3.79336 1.97702 3.78281C1.97702 3.77812 1.9735 3.77461 1.96881 3.77578C1.95357 3.7793 1.89496 3.74766 1.89496 3.73594C1.89496 3.73125 1.89144 3.72773 1.88676 3.72891C1.87738 3.73242 1.66169 3.61289 1.6488 3.59883C1.64528 3.59531 1.61832 3.57891 1.58784 3.5625C1.55619 3.54727 1.53158 3.52969 1.53158 3.525C1.53158 3.51914 1.52806 3.5168 1.5222 3.51797C1.50813 3.52148 1.44952 3.48867 1.44952 3.47812C1.44952 3.47227 1.44366 3.47109 1.4378 3.47461C1.43077 3.47812 1.42608 3.47578 1.42608 3.46992C1.42608 3.46289 1.42022 3.45703 1.41318 3.45703C1.3956 3.45703 0.930232 3.1875 0.919682 3.17109C0.914993 3.16406 0.910304 3.16289 0.910304 3.16758C0.910304 3.17344 0.898582 3.16875 0.884516 3.15937C0.852866 3.13711 0.839972 3.13594 0.839972 3.15469C0.839972 3.17109 0.735645 3.35508 0.720406 3.36445C0.713373 3.36797 0.708684 3.37617 0.708684 3.38203C0.709856 3.39375 0.524647 3.71601 0.512925 3.72656C0.508236 3.73008 0.498858 3.74766 0.489481 3.76758C0.47307 3.80625 0.253867 4.18594 0.243317 4.19531C0.2398 4.19883 0.217528 4.23633 0.195256 4.27969C0.172984 4.32422 0.150712 4.35938 0.146023 4.35938C0.121407 4.35938 0.143679 4.38047 0.195256 4.40508C0.228078 4.42031 0.253867 4.43789 0.253867 4.44375C0.253867 4.44844 0.257383 4.45195 0.263244 4.45078C0.277311 4.44727 0.335921 4.48008 0.335921 4.49062C0.335921 4.49648 0.34061 4.49766 0.347643 4.49414C0.353504 4.49062 0.359365 4.49297 0.359365 4.49883C0.359365 4.50586 0.366399 4.51172 0.375776 4.51172C0.385154 4.51172 0.401565 4.51992 0.410943 4.53047C0.421493 4.53984 0.429698 4.5457 0.429698 4.54219C0.429698 4.53398 0.774328 4.73555 0.782533 4.74844C0.78605 4.7543 0.791911 4.75898 0.794255 4.75781C0.803633 4.75312 0.863416 4.78594 0.863416 4.79531C0.863416 4.8 0.868105 4.80352 0.872793 4.80117C0.883343 4.79766 1.3827 5.08477 1.39208 5.1C1.3956 5.10586 1.40146 5.11055 1.4038 5.10938C1.41435 5.10469 1.47297 5.1375 1.47297 5.14687C1.47297 5.15273 1.47765 5.15391 1.48469 5.15039C1.49055 5.14687 1.49641 5.14922 1.49641 5.15508C1.49641 5.16211 1.50227 5.16797 1.5093 5.16797C1.52454 5.16797 1.74375 5.29336 1.76602 5.31562C1.78126 5.33086 1.78008 5.33555 1.75781 5.35312C1.74257 5.36367 1.69569 5.3918 1.65231 5.41406C1.60777 5.43633 1.57026 5.45859 1.56674 5.46211C1.55736 5.47266 1.27955 5.63086 1.27603 5.62734C1.27486 5.625 1.26431 5.63203 1.25493 5.64258C1.24438 5.65195 1.22915 5.66016 1.21977 5.66016C1.21039 5.66016 1.20336 5.66602 1.20336 5.67305C1.20336 5.67891 1.19867 5.68242 1.19281 5.67891C1.18695 5.67422 1.17991 5.67656 1.17757 5.68125C1.17288 5.69414 1.00994 5.78906 0.994703 5.78906C0.98767 5.78906 0.980637 5.79375 0.978292 5.79844C0.973604 5.81016 0.68524 5.97656 0.671173 5.97539C0.665312 5.97539 0.657107 5.97891 0.65359 5.98477C0.650074 5.99062 0.593807 6.02695 0.529336 6.06445C0.464864 6.10195 0.40977 6.13359 0.407426 6.13594C0.405082 6.13828 0.419148 6.16523 0.437903 6.1957C0.511753 6.31289 0.851694 6.91172 0.851694 6.92344C0.851694 6.93047 0.856383 6.9375 0.861071 6.93984C0.866932 6.94102 0.917337 7.02539 0.974776 7.125C1.10841 7.3582 1.1213 7.37812 1.1342 7.35703C1.14006 7.34883 1.14475 7.34648 1.14475 7.35352C1.14475 7.36055 1.14826 7.35937 1.15412 7.35234C1.16467 7.33594 1.64997 7.05469 1.66521 7.05586C1.67107 7.05586 1.67927 7.05117 1.68279 7.04531C1.69217 7.03008 2.10948 6.78984 2.1212 6.79453C2.12589 6.7957 2.1294 6.79219 2.1294 6.7875C2.1294 6.77695 2.17277 6.75352 2.1927 6.75234C2.19856 6.75234 2.20677 6.74766 2.21029 6.74062C2.21966 6.72773 2.40722 6.61875 2.41777 6.62109C2.42246 6.62226 2.42949 6.61875 2.43301 6.61172C2.44238 6.59766 2.68737 6.45703 2.70261 6.45703C2.70847 6.45703 2.71551 6.45234 2.71785 6.44766C2.72254 6.43476 3.19143 6.16641 3.21604 6.16172C3.23714 6.1582 3.4329 6.26367 3.43993 6.28359C3.44228 6.28828 3.44931 6.29297 3.45634 6.29297C3.47393 6.29297 3.65796 6.39961 3.66265 6.4125C3.665 6.41719 3.67203 6.41953 3.67789 6.41484C3.68375 6.41133 3.68844 6.41484 3.68844 6.4207C3.68844 6.42773 3.69548 6.43359 3.70485 6.43359C3.71423 6.43359 3.72947 6.4418 3.74002 6.45117C3.7494 6.46172 3.76112 6.46875 3.76464 6.46875C3.77519 6.46641 4.21008 6.71836 4.21359 6.72891C4.21594 6.73359 4.22297 6.73828 4.23 6.73828C4.24641 6.73828 4.57112 6.92578 4.58167 6.94219C4.58636 6.94922 4.59104 6.95156 4.59104 6.94687C4.59104 6.93633 4.70944 7.00664 4.72116 7.02305C4.72468 7.02891 4.73288 7.03359 4.73874 7.03359C4.75867 7.03477 4.80204 7.0582 4.80204 7.06875C4.80204 7.07344 4.80556 7.07695 4.81142 7.07578C4.82197 7.07109 5.23928 7.3125 5.24983 7.32891C5.25452 7.33594 5.2592 7.33828 5.2592 7.33359C5.2592 7.32305 5.40221 7.40508 5.41394 7.42266C5.41862 7.42969 5.42331 7.43203 5.42331 7.42734C5.42331 7.41445 5.5675 7.50352 5.57218 7.51992C5.57687 7.53164 5.36001 7.66172 5.33657 7.66172C5.33071 7.66172 5.3225 7.66758 5.31899 7.67344C5.30961 7.6875 4.28979 8.27578 4.27924 8.27344C4.27455 8.27227 4.26751 8.27578 4.264 8.28281C4.25462 8.2957 3.6861 8.62383 3.67203 8.62383C3.66617 8.62266 3.65796 8.62734 3.65445 8.63437C3.64507 8.64727 3.45752 8.75625 3.44697 8.75391C3.44228 8.75273 3.43525 8.75625 3.43173 8.76328C3.42821 8.76914 3.3825 8.79727 3.33209 8.82656C3.25238 8.87227 3.2348 8.8793 3.21135 8.86758C3.19729 8.86172 3.18439 8.85117 3.18439 8.84531C3.18439 8.84062 3.18088 8.83711 3.17619 8.83828C3.16446 8.84297 2.74716 8.60273 2.73778 8.5875C2.73426 8.58164 2.72723 8.57695 2.72254 8.57812C2.71199 8.58047 2.19505 8.28281 2.19036 8.27109C2.18801 8.26641 2.17864 8.26172 2.17043 8.26172C2.16105 8.26172 2.14581 8.25352 2.13644 8.24297C2.12589 8.23359 2.11768 8.22773 2.11768 8.23125C2.11768 8.23945 1.691 7.99102 1.68279 7.97812C1.67927 7.97109 1.67341 7.96875 1.6699 7.97109C1.66286 7.97578 1.1635 7.6875 1.15412 7.67109C1.14944 7.66406 1.14475 7.66172 1.14475 7.66758C1.14475 7.67227 1.13068 7.66758 1.1131 7.65586C1.08965 7.64062 1.08027 7.63945 1.07676 7.65C1.07441 7.6582 1.06504 7.67227 1.05566 7.68047C1.04628 7.68984 1.03925 7.70156 1.03925 7.70508C1.03925 7.71328 0.747367 8.22305 0.611391 8.45508C0.577397 8.5125 0.509408 8.62969 0.461348 8.71523L0.373432 8.86992L0.427354 8.90156C0.457831 8.91914 0.485964 8.93789 0.489481 8.94375C0.492997 8.95078 0.498858 8.9543 0.501203 8.95312C0.510581 8.94844 0.570363 8.98125 0.570363 8.99062C0.570363 8.99531 0.57388 8.99883 0.579741 8.99766C0.593807 8.99414 0.652418 9.02578 0.652418 9.0375C0.652418 9.04219 0.655935 9.0457 0.661796 9.04453C0.666484 9.04219 0.737989 9.08086 0.821216 9.12891C0.904443 9.17695 0.999392 9.23203 1.03221 9.25078C1.06504 9.26836 1.09551 9.28945 1.1002 9.29766C1.10489 9.30469 1.10958 9.30703 1.10958 9.30234C1.10958 9.2918 1.25259 9.37383 1.26431 9.39141C1.269 9.39844 1.27369 9.40078 1.27369 9.39609C1.27369 9.38672 1.69803 9.63164 1.70858 9.64687C1.7121 9.65391 1.71796 9.65742 1.7203 9.65625C1.73437 9.64922 1.78946 9.68672 1.78946 9.70195C1.78829 9.71953 1.44483 9.92578 1.41553 9.92578C1.40849 9.92578 1.40263 9.93164 1.40263 9.93867C1.40263 9.94453 1.39794 9.94805 1.39208 9.94453C1.38622 9.93984 1.37919 9.94219 1.37684 9.94687C1.37216 9.95977 1.20922 10.0547 1.19398 10.0547C1.18695 10.0547 1.17991 10.0594 1.17757 10.0641C1.17405 10.0734 0.95602 10.2012 0.945471 10.2C0.941954 10.2 0.932576 10.207 0.924371 10.2152C0.916165 10.2234 0.900927 10.2305 0.891549 10.2305C0.882171 10.2305 0.875138 10.2363 0.875138 10.2434C0.875138 10.2492 0.870449 10.2516 0.863416 10.248C0.857555 10.2445 0.851694 10.2457 0.851694 10.2516C0.851694 10.2609 0.793083 10.2937 0.782533 10.2891C0.780189 10.2879 0.774328 10.2926 0.770811 10.2984C0.761434 10.3125 0.376949 10.5352 0.360538 10.5352C0.353504 10.5352 0.347643 10.541 0.347643 10.548C0.347643 10.5539 0.341782 10.5562 0.335921 10.5527C0.328888 10.5492 0.324199 10.5504 0.324199 10.5551C0.324199 10.5609 0.292549 10.582 0.252694 10.6043C0.202289 10.6324 0.183534 10.6477 0.188223 10.6605C0.192912 10.6711 0.258555 10.7883 0.335921 10.923C0.413287 11.0566 0.476586 11.1727 0.476586 11.1785C0.476586 11.1855 0.482448 11.1914 0.489481 11.1914C0.495342 11.1914 0.497686 11.1973 0.49417 11.2031C0.490653 11.2102 0.491825 11.2148 0.497686 11.2148C0.502375 11.2148 0.519958 11.2371 0.535197 11.2641C0.550436 11.2922 0.623113 11.4199 0.698134 11.5488C0.773156 11.6777 0.832938 11.7867 0.830594 11.7914C0.829422 11.7973 0.832938 11.8008 0.838799 11.8008C0.84466 11.8008 0.85521 11.816 0.863416 11.8359C0.871621 11.8547 0.883343 11.8711 0.889204 11.8711C0.900927 11.8711 1.01698 11.8113 1.02753 11.7996C1.04042 11.7855 1.33816 11.6191 1.34637 11.6227C1.35223 11.6238 1.35574 11.6203 1.35574 11.6156C1.35574 11.6051 1.39912 11.5816 1.41904 11.5805C1.4249 11.5805 1.43311 11.5746 1.43663 11.5687C1.446 11.5547 1.85042 11.3203 1.86448 11.3215C1.87034 11.3215 1.87855 11.318 1.88207 11.3109C1.89144 11.298 2.07314 11.1926 2.0872 11.1926C2.09306 11.1937 2.10127 11.1879 2.10479 11.182C2.11416 11.1691 2.38377 11.0133 2.39432 11.0156C2.39901 11.0168 2.40604 11.0133 2.40956 11.0074C2.42363 10.9863 2.50217 10.9453 2.52678 10.9453H2.5514V11.7363V12.5273H3.26059H3.96977V11.3203C3.96977 9.95508 3.95805 10.098 4.06941 10.043C4.10223 10.0266 4.13037 10.0102 4.13388 10.0066C4.14678 9.99258 4.58636 9.74414 4.59456 9.74766C4.59925 9.74883 4.60277 9.74531 4.60277 9.74062C4.60277 9.72891 4.66138 9.69727 4.67662 9.70078C4.6813 9.70195 4.68482 9.69844 4.68482 9.69375C4.68482 9.6832 4.72819 9.65977 4.74812 9.65859C4.75398 9.65859 4.76219 9.65273 4.7657 9.64687C4.77508 9.63164 5.19239 9.39141 5.20411 9.39609C5.2088 9.39727 5.21232 9.39375 5.21232 9.38906C5.21232 9.37852 5.25569 9.35508 5.27562 9.35391C5.28148 9.35391 5.28968 9.34922 5.2932 9.34336C5.30492 9.32695 5.42331 9.25664 5.42331 9.26719C5.42331 9.27187 5.428 9.26953 5.43269 9.2625C5.44324 9.24609 6.24738 8.78203 6.2591 8.78672C6.26379 8.78789 6.2673 8.7832 6.2673 8.77617C6.2673 8.76914 6.27903 8.76562 6.29427 8.76797L6.32005 8.77148L6.32357 10.0992C6.32592 11.2664 6.32357 11.4305 6.30833 11.4527C6.29895 11.4668 6.29075 11.4738 6.29075 11.4691C6.29075 11.4633 6.28254 11.468 6.27199 11.4773C6.26262 11.4879 6.24621 11.4961 6.23683 11.4961C6.22745 11.4961 6.22042 11.502 6.22042 11.509C6.22042 11.5148 6.21573 11.5184 6.20987 11.5148C6.20401 11.5102 6.19697 11.5125 6.19463 11.5172C6.18994 11.5301 5.72223 11.8008 5.70582 11.8008C5.69878 11.8008 5.69292 11.8066 5.69292 11.8137C5.69292 11.8195 5.68823 11.8219 5.6812 11.8184C5.67534 11.8148 5.66948 11.816 5.66948 11.8219C5.66948 11.8312 5.61087 11.8641 5.60032 11.8594C5.59797 11.8582 5.59211 11.8617 5.5886 11.8676C5.57687 11.884 5.45848 11.9543 5.45848 11.9437C5.45848 11.9391 5.45379 11.9414 5.4491 11.9484C5.43855 11.9648 5.11385 12.1523 5.09627 12.1523C5.08923 12.1523 5.08337 12.1582 5.08337 12.1652C5.08337 12.1711 5.07868 12.1746 5.07282 12.1711C5.06696 12.1664 5.05993 12.1687 5.05758 12.1734C5.0529 12.1875 4.63442 12.4289 4.62387 12.4242C4.618 12.423 4.61449 12.4266 4.61449 12.4312C4.61449 12.443 4.55588 12.4746 4.54064 12.4711C4.53595 12.4699 4.53243 12.4734 4.53243 12.4781C4.53243 12.4898 4.47382 12.5215 4.45976 12.518C4.4539 12.5168 4.45038 12.5203 4.45038 12.525C4.45038 12.5309 4.4199 12.5508 4.38356 12.5684C4.34605 12.5871 4.31323 12.6059 4.30971 12.6105C4.3062 12.6141 4.27338 12.6352 4.23586 12.6562C4.19953 12.6762 4.16905 12.6961 4.16905 12.7008C4.16905 12.7043 4.21359 12.784 4.26869 12.8789C4.32378 12.9738 4.36832 13.057 4.36832 13.0641C4.36832 13.0723 4.37301 13.0781 4.37887 13.0781C4.38474 13.0781 4.39529 13.0957 4.40466 13.1156C4.41287 13.1367 4.42342 13.1566 4.42693 13.1602C4.441 13.1719 4.54416 13.3559 4.54416 13.3687C4.54416 13.377 4.54884 13.3828 4.55471 13.3828C4.56057 13.3828 4.57112 13.4004 4.58049 13.4215C4.5887 13.4414 4.59925 13.4613 4.60277 13.4648C4.61683 13.4742 4.76688 13.7414 4.76688 13.7555C4.76688 13.7625 4.77156 13.7695 4.77625 13.7719C4.78211 13.7742 4.80321 13.8059 4.82431 13.8422C4.86886 13.923 4.87589 13.9277 4.90989 13.9078C4.92512 13.8996 4.94036 13.8949 4.94622 13.8961C4.95091 13.8973 4.95443 13.8937 4.95443 13.8891C4.95443 13.8785 4.9978 13.8551 5.01773 13.8539C5.02359 13.8539 5.0318 13.8492 5.03531 13.8422C5.04469 13.827 5.51123 13.5586 5.52764 13.5586C5.53467 13.5586 5.54053 13.5527 5.54053 13.5457C5.54053 13.5398 5.54522 13.5363 5.55108 13.5398C5.55695 13.5445 5.56398 13.5422 5.56632 13.5375C5.57101 13.5246 6.07037 13.2352 6.07741 13.2398C6.08092 13.2422 6.08678 13.2398 6.0903 13.2328C6.1032 13.2141 6.26496 13.125 6.29309 13.1227L6.32005 13.1191V14.0602V15H7.02572H7.73257L7.73491 14.0484C7.73843 13.1789 7.7396 13.0957 7.75718 13.0922C7.76773 13.0898 7.78532 13.0969 7.79587 13.1074C7.80642 13.118 7.81462 13.1238 7.81462 13.1203C7.81462 13.1121 8.24131 13.3605 8.24951 13.3734C8.25303 13.3805 8.25889 13.384 8.26123 13.3828C8.27061 13.3781 8.33039 13.4109 8.33039 13.4203C8.33039 13.425 8.33391 13.4285 8.33977 13.4273C8.35384 13.4238 8.41245 13.4555 8.41245 13.4672C8.41245 13.4719 8.41597 13.4754 8.42183 13.4742C8.43238 13.4707 8.95636 13.7707 8.96104 13.7836C8.96339 13.7883 8.97042 13.793 8.97746 13.793C8.98332 13.793 9.02083 13.8117 9.05951 13.834C9.12984 13.8762 9.13101 13.8762 9.15211 13.8527C9.16501 13.8398 9.17439 13.8258 9.17439 13.8211C9.17439 13.8105 9.32795 13.5434 9.3385 13.5352C9.34318 13.5316 9.34905 13.5199 9.35373 13.5082C9.3596 13.4918 9.49557 13.2562 9.56122 13.1484C9.56708 13.1391 9.61514 13.0547 9.66789 12.9609C9.72064 12.8672 9.76987 12.7875 9.7769 12.7828C9.78394 12.7781 9.78628 12.7734 9.78159 12.7734C9.7769 12.7734 9.78862 12.7465 9.80855 12.7137C9.84489 12.6562 9.84489 12.6539 9.82379 12.634C9.8109 12.6234 9.79683 12.6129 9.7898 12.6105C9.76752 12.6047 9.56708 12.4875 9.56356 12.4781C9.56122 12.4734 9.55418 12.4688 9.54715 12.4688C9.53308 12.4688 9.37015 12.375 9.36077 12.3609C9.35725 12.3539 9.34905 12.3504 9.34318 12.3504C9.32912 12.3516 8.84265 12.0703 8.83327 12.0562C8.82976 12.0504 8.8239 12.0457 8.82155 12.0469C8.81217 12.0516 8.75239 12.0187 8.75239 12.0094C8.75239 12.0047 8.74887 12.0012 8.74419 12.0023C8.73246 12.007 8.31516 11.7668 8.30578 11.7516C8.30226 11.7457 8.2964 11.741 8.29406 11.7422C8.28468 11.7469 8.20145 11.7023 8.20145 11.693C8.20145 11.6883 8.19442 11.6836 8.18504 11.6836C8.17566 11.6836 8.15925 11.6754 8.14987 11.6648C8.13933 11.6555 8.13112 11.6496 8.13112 11.6531C8.13112 11.6555 8.0432 11.6074 7.93536 11.5441L7.73843 11.4305L7.73491 10.1039C7.73257 8.83828 7.73374 8.77734 7.75367 8.77734C7.77477 8.77734 8.03851 8.925 8.05024 8.94375C8.05375 8.94961 8.05961 8.9543 8.06196 8.95312C8.07134 8.94844 8.13112 8.98125 8.13112 8.99062C8.13112 8.99531 8.13581 8.99883 8.1405 8.99766C8.15222 8.99297 8.56718 9.2332 8.57773 9.24844C8.58125 9.2543 8.58711 9.25898 8.58945 9.25781C8.6 9.25312 8.65861 9.28594 8.65861 9.29531C8.65861 9.30117 8.6633 9.30234 8.67034 9.29883C8.67737 9.29531 8.68206 9.29766 8.68206 9.30352C8.68206 9.31055 8.68909 9.31641 8.69847 9.31641C8.70785 9.31641 8.72426 9.32461 8.73363 9.33516C8.74419 9.34453 8.75239 9.35039 8.75239 9.34687C8.75239 9.33867 9.17908 9.58711 9.18728 9.6C9.1908 9.60703 9.19666 9.61055 9.199 9.60938C9.20838 9.60469 9.26816 9.6375 9.26816 9.64687C9.26816 9.65156 9.27168 9.65508 9.27754 9.65391C9.29161 9.65039 9.35022 9.68203 9.35022 9.69375C9.35022 9.69844 9.35373 9.70195 9.3596 9.70078C9.37015 9.69727 9.86833 9.9832 9.87888 9.99844C9.8824 10.0055 9.89061 10.0102 9.89647 10.0102C9.90585 10.009 10.0254 10.0734 10.0418 10.0863C10.0453 10.0898 10.05 10.6406 10.0535 11.3121L10.0594 12.5332L10.7651 12.5367L11.4719 12.5391L11.4743 11.7398C11.4778 11.0109 11.479 10.9395 11.4965 10.9359C11.5071 10.9336 11.5258 10.9418 11.5376 10.9535C11.5481 10.9652 11.561 10.9734 11.5645 10.9723C11.5716 10.9699 11.7779 11.0848 11.7884 11.0965C11.7919 11.1 11.8189 11.1164 11.8505 11.1328C11.881 11.148 11.9056 11.1656 11.9056 11.1703C11.9056 11.1762 11.9092 11.1785 11.915 11.1773C11.9291 11.1738 11.9877 11.2055 11.9877 11.2172C11.9877 11.2219 11.9924 11.2254 11.9971 11.2242C12.0076 11.2195 12.507 11.5066 12.5164 11.5219C12.5199 11.5277 12.5257 11.5324 12.5281 11.5312C12.5386 11.5266 12.5972 11.5594 12.5972 11.5687C12.5972 11.5746 12.6031 11.5758 12.609 11.5723C12.616 11.5687 12.6207 11.5711 12.6207 11.577C12.6207 11.584 12.6265 11.5898 12.6336 11.5898C12.6441 11.5898 12.9442 11.7586 13.0732 11.8371L13.1107 11.8594L13.1904 11.7223C13.2338 11.6461 13.2748 11.5816 13.2795 11.5805C13.2842 11.5781 13.2888 11.5711 13.2888 11.5641C13.2888 11.5582 13.3709 11.4094 13.4717 11.2336C13.5725 11.059 13.6651 10.8996 13.6757 10.8809C13.6862 10.8609 13.7226 10.8 13.7566 10.7437C13.7894 10.6875 13.8163 10.6383 13.8163 10.6324C13.8163 10.6266 13.7929 10.6102 13.7636 10.5938C13.7343 10.5773 13.7108 10.5609 13.7108 10.5551C13.7108 10.5504 13.7062 10.5492 13.6991 10.5527C13.6933 10.5562 13.6874 10.5539 13.6874 10.548C13.6874 10.541 13.6804 10.5352 13.671 10.5352C13.6616 10.5352 13.6452 10.5258 13.6335 10.5152C13.6218 10.5035 13.6124 10.4965 13.6124 10.5C13.6112 10.5082 13.331 10.3465 13.3217 10.3312C13.317 10.3242 13.3123 10.3219 13.3123 10.3266C13.3123 10.3371 13.1939 10.2668 13.1822 10.2504C13.1787 10.2445 13.1705 10.2398 13.1646 10.2398C13.1447 10.2387 13.1013 10.2152 13.1013 10.2047C13.1013 10.2 13.0978 10.1965 13.0931 10.1977C13.0778 10.2012 13.0192 10.1695 13.0192 10.1578C13.0192 10.1531 13.0157 10.1496 13.011 10.1508C12.9993 10.1555 12.582 9.91523 12.5726 9.9C12.5691 9.89414 12.5621 9.88945 12.5574 9.89062C12.5398 9.89414 12.2339 9.71133 12.2339 9.69727C12.2339 9.68086 12.4882 9.52734 12.5128 9.52734C12.521 9.52734 12.5269 9.52148 12.5269 9.51445C12.5269 9.50859 12.5316 9.50508 12.5375 9.50859C12.5433 9.51328 12.5504 9.51094 12.5527 9.50625C12.5574 9.49219 12.9759 9.25078 12.9876 9.25547C12.9923 9.25664 12.9958 9.25312 12.9958 9.24844C12.9958 9.23672 13.0544 9.20508 13.0696 9.20859C13.0743 9.20977 13.0778 9.20625 13.0778 9.20156C13.0778 9.19219 13.1376 9.15937 13.147 9.16406C13.1494 9.16523 13.1552 9.16055 13.1587 9.15469C13.1705 9.13711 13.5913 8.89687 13.5983 8.90391C13.603 8.90742 13.6053 8.90391 13.6053 8.89687C13.6053 8.88984 13.6159 8.88164 13.6288 8.87695C13.6522 8.86992 13.6522 8.86875 13.6264 8.8207C13.6135 8.79375 13.603 8.76914 13.6042 8.7668C13.6065 8.76445 13.6018 8.75859 13.596 8.75508C13.5901 8.75156 13.5221 8.64023 13.4459 8.50781C13.3697 8.37539 13.242 8.15391 13.1611 8.01562C13.0814 7.87734 13.0017 7.73672 12.9852 7.70273C12.9688 7.66875 12.9489 7.6418 12.9407 7.6418C12.9337 7.64062 12.8586 7.68047 12.7754 7.72852C12.6922 7.77656 12.6183 7.81641 12.6101 7.81641C12.6031 7.81641 12.5972 7.82227 12.5972 7.8293C12.5972 7.83516 12.5926 7.8375 12.5855 7.83398C12.5797 7.83047 12.5738 7.83164 12.5738 7.8375C12.5738 7.84687 12.5152 7.87969 12.5046 7.875C12.5023 7.87383 12.4964 7.87852 12.4929 7.88437C12.4835 7.89844 12.0674 8.13984 12.0604 8.13516C12.0569 8.13281 12.051 8.13516 12.0475 8.14219C12.0381 8.15625 11.8752 8.25 11.8599 8.25C11.8529 8.25 11.847 8.25586 11.847 8.26289C11.847 8.26875 11.8423 8.27227 11.8365 8.26875C11.8306 8.26406 11.8236 8.26641 11.8212 8.27109C11.8177 8.28281 11.5481 8.43984 11.5364 8.4375C11.5329 8.4375 11.5212 8.44453 11.5118 8.45508C11.5012 8.46445 11.486 8.47266 11.4766 8.47266C11.4672 8.47266 11.4602 8.47852 11.4602 8.48555C11.4602 8.49141 11.4555 8.49492 11.4496 8.49141C11.4438 8.48672 11.4368 8.48906 11.4344 8.49375C11.4297 8.50547 11.003 8.75508 11.003 8.74687C11.003 8.74336 10.9948 8.74922 10.9843 8.75859C10.9749 8.76914 10.9585 8.77734 10.9491 8.77734C10.9397 8.77734 10.9327 8.7832 10.9327 8.79023C10.9327 8.79609 10.928 8.79844 10.921 8.79492C10.9151 8.79141 10.9093 8.79258 10.9093 8.79844C10.9093 8.80781 10.8506 8.84062 10.8401 8.83594C10.8378 8.83477 10.8319 8.83945 10.8284 8.84531C10.8143 8.86758 10.7709 8.87227 10.7522 8.85352C10.7416 8.84297 10.7334 8.83711 10.7334 8.84062C10.7334 8.84883 10.3067 8.60039 10.2985 8.5875C10.295 8.58047 10.288 8.57695 10.2833 8.57812C10.2727 8.58047 9.97852 8.41172 9.97383 8.4C9.97149 8.39531 9.96446 8.39062 9.95742 8.39062C9.94218 8.39062 9.77925 8.2957 9.77456 8.28281C9.77221 8.27812 9.76518 8.27578 9.75932 8.28047C9.75346 8.28398 9.74877 8.28047 9.74877 8.27461C9.74877 8.26758 9.74174 8.26172 9.73236 8.26172C9.72298 8.26172 9.70657 8.25234 9.69485 8.24062C9.68313 8.23008 9.67375 8.22305 9.67375 8.22656C9.67258 8.23242 9.39593 8.07539 9.38538 8.06367C9.38187 8.06016 9.34905 8.04141 9.31271 8.02148C9.2752 8.00273 9.24472 7.98281 9.24472 7.97812C9.24472 7.97344 9.2412 7.96992 9.23651 7.97109C9.22127 7.97461 9.16266 7.94297 9.16266 7.93125C9.16266 7.92656 9.15915 7.92305 9.15446 7.92422C9.13805 7.92773 9.08061 7.89492 9.08061 7.8832C9.08061 7.87617 9.07709 7.87383 9.07358 7.87734C9.06654 7.88437 8.72777 7.69102 8.71605 7.67344C8.71254 7.66758 8.70433 7.66172 8.69847 7.66172C8.67854 7.66055 8.63517 7.63711 8.63517 7.62656C8.63517 7.62187 8.63165 7.61836 8.62696 7.61953C8.6129 7.62422 8.45934 7.53516 8.45934 7.52344C8.45934 7.5082 8.52498 7.46367 8.53436 7.47305C8.53788 7.47656 8.54139 7.47539 8.54139 7.46836C8.54139 7.45781 8.6 7.425 8.61055 7.42969C8.6129 7.43086 8.61876 7.42734 8.62228 7.42031C8.62579 7.41445 8.66916 7.3875 8.71722 7.36055C8.76529 7.33359 8.81335 7.30664 8.82272 7.30078C8.94698 7.22578 9.1275 7.12383 9.13453 7.125C9.13922 7.12617 9.14625 7.12148 9.14977 7.11562C9.16032 7.10039 9.73939 6.76758 9.75111 6.76992C9.7558 6.77227 9.76049 6.76875 9.76049 6.76406C9.76049 6.75937 9.79097 6.73945 9.82848 6.7207C9.86482 6.70078 9.89764 6.68203 9.90116 6.67852C9.91053 6.6668 10.1813 6.51445 10.186 6.51797C10.1883 6.52031 10.1989 6.51211 10.2106 6.50039C10.2223 6.48984 10.2376 6.48047 10.247 6.48047C10.2552 6.48047 10.2645 6.47578 10.2669 6.47109C10.2692 6.46641 10.39 6.39375 10.5365 6.30937L10.8014 6.15586L11.1167 6.3375C11.2891 6.43711 11.4344 6.52383 11.4379 6.52969C11.4414 6.53555 11.4496 6.54023 11.4555 6.54023C11.4696 6.53906 11.956 6.82031 11.9654 6.83437C11.9689 6.84023 11.9748 6.84492 11.9771 6.84375C11.9865 6.83906 12.0463 6.87187 12.0463 6.88125C12.0463 6.88594 12.0498 6.88945 12.0557 6.88828C12.0662 6.88359 12.4835 7.12383 12.4929 7.13906C12.4964 7.14492 12.5023 7.14961 12.5046 7.14844C12.514 7.14375 12.5738 7.17656 12.5738 7.18594C12.5738 7.19062 12.5773 7.19414 12.5832 7.19297C12.5937 7.18828 12.8715 7.34766 12.8762 7.36055C12.8891 7.39453 12.9255 7.34414 13.0567 7.11562C13.1376 6.97617 13.2549 6.77109 13.3181 6.66211C13.3814 6.55195 13.4365 6.46055 13.4401 6.45703C13.4436 6.45352 13.4565 6.43242 13.467 6.41016C13.4787 6.38789 13.5022 6.34219 13.5209 6.31055C13.5397 6.27773 13.569 6.22852 13.5854 6.20039C13.6124 6.15234 13.6171 6.10898 13.5924 6.12422C13.5866 6.12773 13.5819 6.12422 13.5819 6.11836C13.5819 6.11133 13.5749 6.10547 13.5655 6.10547C13.5561 6.10547 13.5397 6.09727 13.5303 6.08672C13.5198 6.07734 13.5116 6.07148 13.5116 6.075C13.5116 6.0832 13.0849 5.83477 13.0767 5.82187C13.0732 5.81484 13.0673 5.81133 13.065 5.8125C13.0544 5.81719 12.9958 5.78437 12.9958 5.775C12.9958 5.76914 12.9911 5.76797 12.9841 5.77148C12.9782 5.775 12.9723 5.77266 12.9723 5.7668C12.9723 5.75977 12.9665 5.75391 12.9595 5.75391C12.9442 5.75391 12.3944 5.4375 12.3851 5.42344C12.3816 5.41758 12.3733 5.41289 12.3675 5.41289C12.3511 5.41406 12.2456 5.34609 12.2456 5.3332C12.2456 5.32148 12.4437 5.20312 12.4613 5.2043C12.4671 5.2043 12.4753 5.20078 12.4788 5.19375C12.4894 5.17852 12.9137 4.93359 12.9137 4.94297C12.9137 4.94766 12.9184 4.94531 12.9231 4.93828C12.9348 4.9207 13.0778 4.83867 13.0778 4.84922C13.0778 4.85391 13.0825 4.85156 13.0872 4.84453C13.0978 4.82812 13.4823 4.60547 13.4987 4.60547C13.5057 4.60547 13.5116 4.59961 13.5116 4.59258C13.5116 4.58672 13.5163 4.5832 13.5221 4.58672C13.528 4.59141 13.535 4.58906 13.5374 4.58437C13.542 4.57031 13.6874 4.48711 13.6874 4.49766C13.6874 4.50234 13.6921 4.5 13.6968 4.49297C13.7085 4.47539 13.8281 4.40508 13.8281 4.41562C13.8281 4.42031 13.8339 4.41445 13.841 4.40273C13.8503 4.38633 13.8456 4.36992 13.8187 4.32656C13.7507 4.21758 13.4354 3.66211 13.4389 3.65742C13.4412 3.65508 13.4377 3.64922 13.4319 3.6457C13.4178 3.63633 13.2302 3.31055 13.2302 3.29531C13.2302 3.28828 13.2255 3.28125 13.2209 3.27891C13.2162 3.27656 13.1974 3.25078 13.181 3.22148C13.1634 3.19219 13.1411 3.16758 13.1318 3.16758C13.1212 3.16758 13.113 3.17109 13.113 3.17578C13.113 3.18398 13.0521 3.21445 13.0439 3.21094C13.0415 3.20977 13.0356 3.21328 13.0321 3.22031C13.0239 3.2332 12.5972 3.48164 12.5972 3.47344C12.5972 3.46992 12.589 3.47578 12.5785 3.48516C12.5691 3.4957 12.5527 3.50391 12.5433 3.50391C12.5339 3.50391 12.5269 3.50977 12.5269 3.5168C12.5269 3.52266 12.5222 3.52617 12.5164 3.52266C12.5105 3.51797 12.5035 3.52031 12.5011 3.525C12.4964 3.53906 12.078 3.78047 12.0674 3.77578C12.0615 3.77461 12.058 3.77812 12.058 3.78281C12.058 3.79453 11.9994 3.82617 11.9853 3.82266C11.9795 3.82148 11.976 3.825 11.976 3.82969C11.976 3.83906 11.9162 3.87187 11.9068 3.86719C11.9045 3.86602 11.8986 3.8707 11.8951 3.87656C11.8869 3.88945 11.6079 4.05234 11.5692 4.06758L11.5423 4.07695L11.5399 3.24844L11.5364 2.41992L10.819 2.41641L10.1004 2.41406V3.6668V4.91953L9.96563 4.99687C9.89178 5.03906 9.82614 5.07422 9.8191 5.07422C9.81324 5.07422 9.80738 5.07891 9.80738 5.08477C9.80738 5.09062 9.78862 5.10234 9.76635 5.11055C9.74408 5.11875 9.72533 5.13047 9.72533 5.13633C9.72533 5.14102 9.72064 5.14336 9.71478 5.13984C9.70891 5.13516 9.70188 5.1375 9.69954 5.14219C9.69485 5.15508 9.30919 5.37891 9.29278 5.37891C9.28575 5.37891 9.27989 5.38477 9.27989 5.3918C9.27989 5.39766 9.2752 5.40117 9.26934 5.39766C9.26347 5.39297 9.25644 5.39531 9.2541 5.4C9.24941 5.41289 8.66799 5.74922 8.66096 5.74453C8.65744 5.74219 8.65158 5.74453 8.64806 5.75156C8.63869 5.76445 8.45113 5.87344 8.44058 5.87109C8.43589 5.86992 8.42886 5.87461 8.42534 5.88047C8.41714 5.89219 8.14753 6.04922 8.13698 6.04688C8.13346 6.04688 8.12174 6.05391 8.11236 6.06445C8.10181 6.07383 8.08658 6.08203 8.0772 6.08203C8.06782 6.08203 8.06079 6.08789 8.06079 6.09492C8.06079 6.10078 8.0561 6.1043 8.05024 6.10078C8.04438 6.09609 8.03734 6.09844 8.035 6.10312C8.02796 6.12305 7.77242 6.26367 7.75367 6.26016C7.73374 6.25664 7.73257 6.18281 7.73257 4.90547C7.73257 3.63281 7.73374 3.55312 7.75367 3.53672C7.78414 3.50977 8.0772 3.3457 8.08658 3.34922C8.09244 3.35039 8.09595 3.34687 8.09595 3.34219C8.09595 3.33281 8.15574 3.3 8.16511 3.30469C8.16746 3.30586 8.17332 3.30117 8.17684 3.29531C8.18739 3.28008 8.52967 3.08203 8.52967 3.09141C8.52967 3.09609 8.53436 3.09375 8.53905 3.08672C8.54843 3.07266 9.11578 2.74336 9.13101 2.74336C9.1357 2.74336 9.1486 2.73516 9.15798 2.72461C9.16853 2.71523 9.18376 2.70703 9.19314 2.70703C9.20252 2.70703 9.20955 2.70117 9.20955 2.69414C9.20955 2.68828 9.21424 2.68476 9.2201 2.68828C9.22596 2.69297 9.233 2.69062 9.23534 2.68594C9.24003 2.67187 9.73939 2.38359 9.75111 2.38711C9.7558 2.38945 9.76049 2.38594 9.76049 2.38125C9.76049 2.36953 9.8191 2.33789 9.83434 2.34141C9.84606 2.34492 9.84489 2.33437 9.82848 2.28867C9.82027 2.26758 9.8109 2.25 9.80621 2.25C9.80152 2.25 9.79214 2.23242 9.78276 2.21133C9.77456 2.19141 9.76401 2.17148 9.76049 2.16797C9.74642 2.15742 9.46744 1.66641 9.46744 1.65351C9.46744 1.64648 9.46275 1.64062 9.45689 1.64062C9.45103 1.64062 9.44048 1.62305 9.4311 1.60195C9.42289 1.58203 9.41352 1.56211 9.40883 1.55859C9.40297 1.55273 9.3385 1.44492 9.21776 1.23516C9.18728 1.18359 9.16266 1.13437 9.16266 1.12852C9.16266 1.09219 9.1146 1.10742 8.97628 1.18594C8.8954 1.23281 8.82507 1.27031 8.82038 1.26797C8.81452 1.2668 8.811 1.27031 8.811 1.275C8.811 1.28672 8.75239 1.31836 8.73832 1.31484C8.73246 1.31367 8.72895 1.31719 8.72895 1.32187C8.72895 1.33125 8.66916 1.36406 8.65979 1.35937C8.65744 1.3582 8.65158 1.36172 8.64806 1.36875C8.63751 1.38398 8.21317 1.62891 8.21317 1.61953C8.21317 1.61484 8.20849 1.61719 8.2038 1.62422C8.18739 1.64883 7.7736 1.88086 7.75367 1.87734C7.73374 1.87383 7.73257 1.81992 7.73257 0.936328V-9.53674e-07H7.0269H6.32005L6.32357 0.924609Z" fill="#00B2FF"/>
</svg>
