<svg width="94" height="75" viewBox="0 0 94 75" fill="none" xmlns="http://www.w3.org/2000/svg">
<path d="M9.44506 0.629958C8.26442 0.857188 8.01587 1.38739 8.01587 3.50821C8.01587 5.09883 8.26442 6.00775 8.63726 5.70477C9.01009 5.47754 9.25864 4.41713 9.25864 3.35672C9.25864 2.37206 9.56933 1.53888 9.88003 1.53888C10.2529 1.53888 10.5014 2.59929 10.5014 3.88693C10.5014 5.17457 10.75 6.00775 11.1228 5.70477C11.8685 5.17457 11.9927 1.00868 11.3092 0.629958C10.9985 0.478471 10.1907 0.478471 9.44506 0.629958Z" fill="white"/>
<path d="M50.767 0.553918C50.6427 0.932636 50.7048 2.37176 50.9534 3.81089L51.3262 6.46191L51.4505 3.20494C51.5126 0.250944 51.2641 -0.733722 50.767 0.553918Z" fill="white"/>
<path d="M58.4722 3.05332C58.4722 4.94691 58.6586 5.78009 58.7829 4.94691C58.9693 4.11373 59.4042 3.20481 59.8392 2.90183C60.3363 2.44737 60.3363 2.29589 59.7771 2.29589C59.4042 2.29589 58.9071 1.68994 58.7829 0.932503C58.5964 0.250811 58.4722 1.15973 58.4722 3.05332Z" fill="white"/>
<path d="M85.2539 3.05329C85.2539 4.94688 85.3782 5.70431 85.5025 4.71965C85.6268 3.81072 85.6268 2.29585 85.5025 1.31119C85.3782 0.402263 85.2539 1.1597 85.2539 3.05329Z" fill="white"/>
<path d="M12.9868 2.97752C12.9868 5.47706 14.3539 6.46173 16.1559 5.32557C18.2686 3.88645 17.3365 0.780962 14.7888 0.780962C13.2354 0.780962 12.9868 1.08394 12.9868 2.97752ZM16.0937 2.90178C16.0937 4.71963 15.5966 5.32557 14.4781 4.79537C13.1111 4.18942 13.4218 1.5384 14.851 1.5384C15.6588 1.5384 16.0937 2.0686 16.0937 2.90178Z" fill="white"/>
<path d="M19.0142 1.31136C18.8278 1.69007 18.5171 2.90197 18.3307 4.18961C17.9579 6.38617 18.02 6.46191 20.1327 6.46191C22.059 6.46191 22.3075 6.23468 22.059 4.94704C21.8726 4.11387 21.6862 2.82623 21.6862 2.06879C21.6862 0.781152 19.5735 0.175204 19.0142 1.31136ZM21.0648 3.43217C21.0648 4.64407 20.6919 5.32576 20.0706 5.32576C19.387 5.32576 19.2006 4.94704 19.4492 4.11387C19.6356 3.43217 19.822 2.599 19.822 2.22028C19.822 1.84156 20.1327 1.53859 20.4434 1.53859C20.8162 1.53859 21.0648 2.37177 21.0648 3.43217Z" fill="white"/>
<path d="M23.9854 2.06898C23.8611 2.82641 23.4882 4.11405 23.1776 4.94723C22.7426 6.31062 22.8047 6.31062 23.7368 5.40169C24.296 4.87149 25.2281 4.56851 25.7252 4.87149C26.7194 5.32595 26.8437 5.02298 26.2845 2.4477C25.8495 0.478364 24.4203 0.251133 23.9854 2.06898Z" fill="white"/>
<path d="M27.9001 3.5837C27.9623 6.15898 28.0244 6.31047 28.7701 5.09857C29.2051 4.41688 29.8886 3.81093 30.3235 3.81093C30.6964 3.81093 31.0071 3.12924 31.0071 2.29606C31.0071 1.15991 30.5721 0.781187 29.4536 0.781187C28.0866 0.781187 27.9001 1.08416 27.9001 3.5837ZM30.3857 2.29606C30.3857 2.67478 30.1371 3.05349 29.8264 3.05349C29.4536 3.05349 29.0186 2.67478 28.8322 2.29606C28.6458 1.8416 28.8944 1.53862 29.3915 1.53862C29.9507 1.53862 30.3857 1.8416 30.3857 2.29606Z" fill="white"/>
<path d="M32.0012 1.91719C31.3799 3.88652 31.5663 4.49247 32.809 5.32565C34.6732 6.4618 36.1024 5.47714 35.8538 3.12909C35.7295 1.61422 35.2946 1.08401 34.0518 0.932528C32.9955 0.781041 32.2498 1.15976 32.0012 1.91719ZM35.2324 3.20483C35.1082 4.1895 34.6111 4.94693 34.1139 4.94693C33.6168 4.94693 33.1197 4.1895 32.9955 3.20483C32.809 1.91719 33.1197 1.53848 34.1139 1.53848C35.1082 1.53848 35.4189 1.91719 35.2324 3.20483Z" fill="white"/>
<path d="M37.283 2.06903C37.2209 3.28093 37.5937 3.81113 38.4015 3.81113C39.085 3.81113 39.7686 4.41708 39.8928 5.09877C40.0793 5.8562 40.2035 5.09877 40.2035 3.43241C40.2035 1.76606 40.0793 1.00862 39.8928 1.69031C39.7686 2.44775 39.2093 3.0537 38.7743 3.0537C38.3394 3.0537 37.7801 2.44775 37.6559 1.69031C37.4073 0.705649 37.3452 0.857136 37.283 2.06903Z" fill="white"/>
<path d="M41.5706 2.97755C41.5706 4.26519 41.8813 5.47709 42.1919 5.70432C42.5648 6.00729 42.8133 5.09837 42.8133 3.50776C42.8133 1.99289 42.5648 0.780991 42.1919 0.780991C41.8813 0.780991 41.5706 1.76566 41.5706 2.97755Z" fill="white"/>
<path d="M44.1804 1.9172C43.7454 2.59889 43.6833 3.05335 44.0561 3.05335C44.3668 3.05335 44.6775 3.58355 44.6775 4.34099C44.6775 6.31032 45.4853 4.79545 45.6095 2.67463C45.6717 0.553813 45.361 0.326582 44.1804 1.9172Z" fill="white"/>
<path d="M46.5415 3.43198C46.5415 5.5528 46.7901 6.08301 47.7221 6.08301C48.3435 6.08301 49.2135 5.62855 49.5863 5.09834C50.0834 4.26516 49.897 3.65922 48.7164 2.44732C46.6658 0.250757 46.5415 0.3265 46.5415 3.43198ZM49.027 4.64388C49.027 5.0226 48.7785 5.32557 48.4057 5.32557C48.095 5.32557 47.7843 4.79537 47.7843 4.11368C47.7843 3.50773 48.095 3.20475 48.4057 3.43198C48.7785 3.65922 49.027 4.18942 49.027 4.64388Z" fill="white"/>
<path d="M52.7554 3.43199C52.7554 5.70429 52.9418 6.08301 54.1846 6.08301C55.2409 6.08301 55.3652 5.93152 54.6195 5.32557C53.4389 4.41665 53.4389 2.0686 54.6195 1.38691C55.3031 1.00819 55.1788 0.856707 54.1846 0.856707C52.9418 0.780964 52.7554 1.15968 52.7554 3.43199Z" fill="white"/>
<path d="M60.8335 3.05338C60.8335 4.26527 61.1442 5.32568 61.4549 5.32568C61.8277 5.32568 62.0763 4.26527 62.0763 3.05338C62.0763 1.76574 61.8277 0.781071 61.4549 0.781071C61.1442 0.781071 60.8335 1.76574 60.8335 3.05338Z" fill="white"/>
<path d="M63.9405 1.00824C63.9405 1.08399 63.6919 2.29588 63.3812 3.58352C62.822 5.85583 62.8841 5.93157 63.9405 5.17413C64.8104 4.49244 65.3075 4.49244 66.1774 5.40137C67.1717 6.38603 67.2338 6.31029 66.7988 4.9469C66.4881 4.11373 66.1153 2.82609 65.991 2.06865C65.8046 1.38696 65.2454 0.781014 64.8104 0.781014C64.3133 0.781014 63.9405 0.856757 63.9405 1.00824Z" fill="white"/>
<path d="M67.6687 3.50786C67.6687 5.85591 67.8551 6.15889 69.0358 5.93165C71.0242 5.62868 71.2727 3.0534 69.4707 2.5232C68.1037 2.06874 68.1037 1.99299 69.2843 1.46279C70.4028 0.932586 70.3407 0.856842 69.0979 0.856842C67.8551 0.781099 67.6687 1.15982 67.6687 3.50786ZM69.7814 4.64402C69.595 5.02273 69.16 5.17422 68.8493 4.87125C68.5386 4.64402 68.4144 4.11381 68.6629 3.73509C68.8493 3.35638 69.2843 3.20489 69.595 3.50786C69.9057 3.73509 70.03 4.2653 69.7814 4.64402Z" fill="white"/>
<path d="M71.8319 1.68988C71.3348 3.43198 72.5155 6.08301 73.8204 6.08301C75.3117 6.08301 76.5545 3.65921 75.9952 1.99286C75.5603 0.553729 72.2669 0.326499 71.8319 1.68988ZM75.1253 2.97752C75.1253 4.41665 73.6961 5.62855 73.0126 4.79537C72.1426 3.65921 72.7019 1.5384 73.8825 1.5384C74.6903 1.5384 75.1253 2.0686 75.1253 2.97752Z" fill="white"/>
<path d="M76.9895 2.9777C76.9895 5.02277 77.0516 5.09852 78.543 4.34108C80.5935 3.12918 80.5935 0.781136 78.543 0.781136C77.2381 0.781136 76.9895 1.15985 76.9895 2.9777ZM79.475 2.29601C79.475 2.67472 79.0401 3.05344 78.543 3.05344C78.0459 3.05344 77.6109 2.67472 77.6109 2.29601C77.6109 1.84154 78.0459 1.53857 78.543 1.53857C79.0401 1.53857 79.475 1.84154 79.475 2.29601Z" fill="white"/>
<path d="M81.3391 3.35622C81.3391 6.08299 81.6498 6.46171 83.4518 5.62853C84.5082 5.09832 84.8189 3.05325 83.8868 3.05325C83.5761 3.05325 82.8304 2.52304 82.3333 1.84135C81.4012 0.780941 81.3391 0.932428 81.3391 3.35622ZM83.2033 4.56812C83.2033 4.94684 82.9547 5.32555 82.5819 5.32555C82.2712 5.32555 81.9605 4.94684 81.9605 4.56812C81.9605 4.11366 82.2712 3.81068 82.5819 3.81068C82.9547 3.81068 83.2033 4.11366 83.2033 4.56812Z" fill="white"/>
<path d="M66.1152 18.8843C64.6239 21.914 61.8898 39.2593 62.449 42.1375C62.9461 44.5613 65.3695 44.6371 66.3016 42.1375C66.6745 41.1529 67.2958 38.2746 67.7308 35.6993C68.1036 33.1998 68.725 31.079 68.9736 31.079C69.2843 31.079 69.5328 30.776 69.5328 30.3973C69.5328 30.0186 68.9736 29.8671 68.3522 30.0943C67.5444 30.3215 66.923 29.9428 66.488 28.8824C65.8667 27.5948 66.0531 26.7616 67.4201 24.3378C68.2901 22.6714 68.9114 20.7021 68.7872 19.9447C68.5386 18.4298 66.7366 17.6724 66.1152 18.8843ZM68.2901 20.2477C68.2901 20.6264 67.9794 21.3838 67.6687 21.9898C67.1716 22.8987 67.0473 22.8229 67.0473 21.3838C67.0473 20.4749 67.358 19.7175 67.6687 19.7175C68.0415 19.7175 68.2901 19.9447 68.2901 20.2477ZM66.8609 34.3359C66.3638 38.8048 65.3074 41.9103 64.4996 41.3044C64.1889 41.0014 64.0025 39.8652 64.1889 38.8048C64.3132 37.6687 64.6239 35.4721 64.8724 33.8815C65.121 31.9879 65.556 31.079 66.2395 31.079C67.0473 31.079 67.1716 31.6849 66.8609 34.3359Z" fill="white"/>
<path d="M11.7439 22.6714C11.7439 23.5803 12.0546 24.262 12.3653 24.262C12.7381 24.262 12.9867 25.3981 12.9867 26.8373C12.9867 28.2764 13.2974 30.3972 13.6081 31.4576C14.1673 33.2755 14.5401 33.5027 16.7771 33.1997L19.2627 32.8968L18.8277 38.1988C18.4549 42.4404 18.5791 43.3494 19.2627 43.0464C20.2569 42.6677 20.9404 40.0924 21.0025 36.381C21.0647 34.9418 21.8103 31.0789 22.6803 27.8219C23.5502 24.565 24.1716 21.7625 23.9852 21.5352C23.1774 20.5506 21.6239 22.5199 20.754 25.7769C19.8219 29.2611 17.9577 31.5334 17.9577 29.1853C17.9577 28.4279 17.3364 28.0492 16.1557 28.0492C14.4159 28.0492 14.2916 27.8219 14.1052 24.8679C13.9809 22.5199 13.6081 21.5352 12.8624 21.3837C12.0546 21.2322 11.7439 21.611 11.7439 22.6714Z" fill="white"/>
<path d="M51.0777 22.0652C50.6427 22.5954 48.8407 22.8226 46.293 22.5954C42.254 22.2924 42.1919 22.2924 42.1919 24.2618C42.1919 25.3222 41.5083 29.8668 40.7005 34.4871C39.2713 42.5917 39.2092 43.9551 40.3277 43.9551C41.0734 43.9551 42.0054 40.0922 43.0618 32.3663C43.5589 28.7306 44.1803 25.3979 44.3667 25.0192C44.8638 24.0345 50.2699 24.0345 50.2699 24.9435C50.2699 25.3979 49.8349 27.9732 49.2756 30.7757C48.2814 36.1535 48.2814 41.3798 49.3378 41.1526C49.7106 41.0768 50.3941 37.8199 50.8912 33.9569C51.4505 30.094 52.1961 26.1554 52.6311 25.2464C54.0603 22.0652 52.9418 19.7929 51.0777 22.0652Z" fill="white"/>
<path d="M31.8769 32.5938C32.1876 35.1691 32.0012 36.078 30.6963 38.1989C29.4535 40.1682 28.77 40.6227 27.5894 40.3197C25.6631 39.8652 25.6631 39.1078 27.5894 36.2295C29.3293 33.73 29.5778 31.4577 28.2108 30.8517C26.2223 29.8671 23.4882 37.1385 24.4825 40.9256C25.1038 43.4252 29.3914 42.6677 31.3798 39.7137L32.8712 37.5172L34.0518 39.2593C34.7353 40.1682 35.3567 41.3801 35.481 41.8345C35.6052 42.289 36.0402 42.4405 36.4752 42.1375C37.0344 41.7588 36.9723 40.9256 36.2888 38.8806C35.2324 35.7751 35.481 34.1845 37.2208 32.2151C37.9044 31.4577 38.4636 30.5488 38.4636 30.17C38.4636 29.0339 36.7859 29.5641 35.6052 31.1547L34.4868 32.6696L33.9896 31.1547C33.7411 30.2458 33.0576 29.5641 32.4983 29.5641C31.6284 29.5641 31.5662 30.0943 31.8769 32.5938ZM28.1486 33.73C27.9001 34.3359 27.5272 34.8661 27.2166 34.8661C26.968 34.8661 26.8437 34.3359 27.0301 33.73C27.2787 33.124 27.6515 32.5938 27.9622 32.5938C28.2108 32.5938 28.335 33.124 28.1486 33.73Z" fill="white"/>
<path d="M76.7409 39.8649C76.1816 45.0912 75.871 49.6358 76.0574 49.8631C76.6788 50.6205 77.4866 48.4997 77.9215 44.7882C78.2322 42.4402 78.8536 40.8496 79.8478 39.7892C80.7178 38.956 81.7741 36.9109 82.2712 35.2446C82.9547 32.6693 82.9547 32.0633 82.2712 31.1544C81.5877 30.3212 81.2149 30.2455 80.4692 31.0029C79.8478 31.6089 79.475 31.6846 79.1643 31.0787C78.2322 29.1851 77.7351 30.9272 76.7409 39.8649ZM81.5877 33.8812C81.0285 36.8352 80.6556 37.4411 80.0964 36.305C79.5371 35.3203 80.5935 31.8361 81.4634 31.8361C81.7741 31.8361 81.7741 32.745 81.5877 33.8812Z" fill="white"/>
<path d="M59.5905 34.336C59.5905 37.4415 57.54 41.0014 56.5458 39.7895C56.0486 39.1836 56.2351 38.1232 57.105 36.0023C58.5963 32.3667 58.5963 32.5939 57.1671 32.5939C55.6758 32.5939 53.7495 37.3657 54.2466 39.8653C54.5573 41.2286 55.0544 41.6831 56.3593 41.6831C58.4099 41.6831 59.1556 41.0772 60.1498 38.8806C61.0197 36.8355 61.0819 32.8211 60.2119 32.2152C59.8391 31.9122 59.5905 32.8211 59.5905 34.336Z" fill="white"/>
<path d="M72.8262 32.6693C71.2106 33.351 69.2843 37.5169 69.7814 39.1833C70.0299 39.865 70.6513 40.1679 71.397 39.9407C72.1426 39.7135 72.8883 40.0165 73.199 40.7739C74.1311 42.7432 74.9389 41.0769 75.3117 36.608C75.6845 32.3664 75.1874 31.6089 72.8262 32.6693ZM73.8825 34.6387C73.8825 35.0174 73.3233 36.0778 72.6397 37.1382C71.5213 38.8803 71.397 38.956 71.397 37.4412C71.397 35.9263 72.4533 34.1085 73.3854 34.1085C73.634 34.1085 73.8825 34.3357 73.8825 34.6387Z" fill="white"/>
<path d="M6.77295 18.8844C6.77295 21.3839 7.08364 23.6562 7.39433 23.8834C7.76716 24.1864 8.01572 22.5958 8.01572 19.7933V15.1729L46.9765 15.3244L85.9374 15.5516L85.751 19.4146C85.6888 21.6111 85.8752 23.5805 86.2481 23.8834C86.683 24.1864 86.9316 22.7473 86.9316 19.4146V14.4155H46.8523H6.77295V18.8844Z" fill="white"/>
<path d="M6.77295 51.5296V56.0742H46.8523H86.9316V51.5296C86.9316 49.0301 86.683 46.985 86.3102 46.985C85.9995 46.985 85.6888 48.8786 85.6888 51.1509V55.3168H46.8523H8.01572V51.1509C8.01572 48.8786 7.76716 46.985 7.39433 46.985C7.0215 46.985 6.77295 49.0301 6.77295 51.5296Z" fill="white"/>
<path d="M0 64.4062C0 66.6027 0.062139 66.83 0.62139 65.6938C1.05636 64.8606 1.05636 63.9517 0.62139 63.0428C0.062139 61.9824 0 62.2096 0 64.4062Z" fill="white"/>
<path d="M2.54761 64.4059C2.54761 65.845 2.67188 66.4509 2.85829 65.6935C2.98257 65.0118 2.98257 63.7999 2.85829 63.0425C2.67188 62.3608 2.54761 62.9667 2.54761 64.4059Z" fill="white"/>
<path d="M5.65472 64.3301C5.09547 66.3751 5.09547 66.4509 6.83535 66.3751C7.82957 66.2994 8.63737 66.2237 8.63737 66.1479C8.63737 65.3905 7.08391 62.1335 6.71108 62.1335C6.46252 62.1335 5.96541 63.1182 5.65472 64.3301ZM7.08391 64.4058C7.27032 64.7845 7.14605 65.1632 6.83535 65.1632C6.46252 65.1632 6.15183 64.7845 6.15183 64.4058C6.15183 63.9513 6.27611 63.6484 6.40038 63.6484C6.5868 63.6484 6.89749 63.9513 7.08391 64.4058Z" fill="white"/>
<path d="M10.5635 64.5576C10.6878 66.9057 10.6878 66.9057 10.9363 64.9364C11.0606 63.8002 11.5577 62.8913 12.0548 62.8913C12.5519 62.8913 13.049 63.8002 13.1733 64.9364C13.4219 66.9057 13.4219 66.9057 13.5462 64.5576C13.6083 62.4368 13.4219 62.1338 12.0548 62.1338C10.6878 62.1338 10.5014 62.4368 10.5635 64.5576Z" fill="white"/>
<path d="M16.0938 62.1336C15.5967 63.8757 15.5346 66.6782 16.0317 66.6782C16.9638 66.6782 17.2123 65.6936 16.6531 63.6485C16.4045 62.5881 16.156 61.9064 16.0938 62.1336Z" fill="white"/>
<path d="M17.7716 63.0425C17.4609 64.4059 17.958 66.6782 18.6416 66.6782C19.3872 66.6782 19.3872 63.1183 18.6416 62.5881C18.3309 62.2851 17.958 62.5881 17.7716 63.0425Z" fill="white"/>
<path d="M21.5619 63.0425C21.8726 63.5727 22.3076 64.7089 22.4319 65.542C22.6183 66.6024 22.8047 66.3752 22.9911 64.5574C23.3018 62.5123 23.1154 62.1336 22.1212 62.1336C21.2512 62.1336 21.0648 62.3608 21.5619 63.0425Z" fill="white"/>
<path d="M26.0981 64.4059C26.0981 66.148 26.2224 66.6782 26.5953 65.9965C26.9681 65.3148 27.2788 65.2391 27.5273 65.845C27.7759 66.2995 28.273 66.6782 28.6458 66.6782C29.0808 66.6782 29.0808 66.2995 28.5837 65.6178C28.2109 65.0876 28.0244 63.9515 28.273 63.194C28.5837 61.8306 28.5837 61.8306 27.7138 63.1183C26.7817 64.4817 26.7817 64.4817 26.471 63.1183C26.2846 62.3608 26.1603 62.9668 26.0981 64.4059Z" fill="white"/>
<path d="M31.0693 64.4058C31.0071 66.1479 31.1935 66.7538 31.6285 66.2236C32.0635 65.6934 32.0635 64.7845 31.6907 63.5726C31.1314 61.8305 31.0693 61.9062 31.0693 64.4058Z" fill="white"/>
<path d="M33.244 62.8152C32.9955 63.1939 33.1198 64.3301 33.4305 65.3147C33.9897 66.9054 34.0518 66.9054 34.0518 64.5573C34.114 62.1335 33.8654 61.6033 33.244 62.8152Z" fill="white"/>
<path d="M39.0852 64.4816C39.0852 65.6935 39.3338 66.6024 39.6445 66.3752C40.1416 65.9965 39.8309 62.1335 39.3338 62.1335C39.2095 62.1335 39.0852 63.194 39.0852 64.4816Z" fill="white"/>
<path d="M40.9494 63.27C40.4523 63.9517 40.4523 64.4062 40.8251 64.4062C41.1979 64.4062 41.6329 65.0121 41.7572 65.6938C41.9436 66.4512 42.0678 65.921 42.13 64.5576C42.1921 61.8309 42.0678 61.6794 40.9494 63.27Z" fill="white"/>
<path d="M44.9884 62.7397C45.3612 63.0427 45.6098 63.8001 45.6098 64.4061C45.6098 65.012 45.3612 65.8452 44.9884 66.1482C44.6156 66.5269 44.8641 66.6784 45.4855 66.5269C46.1069 66.3754 46.604 66.0724 46.604 65.6937C46.5419 65.3908 46.5419 64.4818 46.5419 63.6487C46.5419 62.7397 46.1069 62.1338 45.4855 62.1338C44.8641 62.1338 44.6156 62.4368 44.9884 62.7397Z" fill="white"/>
<path d="M51.5127 64.5575C51.5127 65.9209 51.7612 66.6783 52.0098 66.2238C52.2584 65.7694 52.9419 65.1634 53.5633 64.9362C55.0546 64.2545 54.6196 62.5881 52.8797 62.2852C51.6991 62.0579 51.5127 62.3609 51.5127 64.5575ZM53.3769 63.6486C53.3769 64.0273 53.1283 64.406 52.7555 64.406C52.4448 64.406 52.1341 64.0273 52.1341 63.6486C52.1341 63.1941 52.4448 62.8911 52.7555 62.8911C53.1283 62.8911 53.3769 63.1941 53.3769 63.6486Z" fill="white"/>
<path d="M56.4839 64.4059C56.4839 66.0723 56.7946 66.6782 57.6024 66.6782C58.1616 66.6782 58.4102 66.3752 58.0374 66.0723C57.0431 65.2391 56.981 63.497 57.8509 62.8153C58.4723 62.2851 58.4102 62.1336 57.6024 62.1336C56.7946 62.1336 56.4839 62.7396 56.4839 64.4059Z" fill="white"/>
<path d="M60.8958 63.194C59.9016 64.6331 60.7094 66.6782 62.325 66.6024C63.5056 66.6024 63.5056 66.5267 62.0764 65.845L60.523 65.0876L62.0143 63.5727C63.0085 62.588 63.1328 62.1336 62.5114 62.1336C62.0143 62.1336 61.2686 62.588 60.8958 63.194Z" fill="white"/>
<path d="M65.5561 62.7397C65.9911 63.0427 66.4261 64.1031 66.6125 65.1635L66.861 67.0571L66.9853 65.0121C66.9853 63.9516 67.4203 62.8155 67.8553 62.664C68.2281 62.4368 67.7931 62.2095 66.7368 62.2095C65.7425 62.2095 65.1833 62.4368 65.5561 62.7397Z" fill="white"/>
<path d="M70.2165 63.497C69.098 66.0723 71.7078 67.8144 73.2613 65.5421C73.8827 64.6332 73.8827 64.1787 73.2613 63.2698C72.205 61.7549 70.9622 61.8307 70.2165 63.497ZM72.6399 64.4059C72.6399 65.2391 72.3914 65.9208 72.0807 65.9208C71.2107 65.9208 70.6515 64.5574 71.0865 63.6485C71.7078 62.3609 72.6399 62.8153 72.6399 64.4059Z" fill="white"/>
<path d="M75.7468 64.5575C75.7468 65.9209 75.9954 66.6783 76.2439 66.2238C76.4925 65.7694 77.176 65.1634 77.8595 64.9362C78.7916 64.4817 78.8537 64.1788 78.2324 63.2698C76.8653 61.3005 75.7468 61.9065 75.7468 64.5575ZM77.611 63.6486C77.611 64.0273 77.3624 64.406 76.9896 64.406C76.6789 64.406 76.3682 64.0273 76.3682 63.6486C76.3682 63.1941 76.6789 62.8911 76.9896 62.8911C77.3624 62.8911 77.611 63.1941 77.611 63.6486Z" fill="white"/>
<path d="M80.78 64.1031C80.4071 65.2393 80.2207 66.2997 80.345 66.5269C80.5314 66.7542 80.9664 66.0725 81.2771 65.0878C81.6499 63.8759 81.8985 63.7244 81.8985 64.4819C81.9606 65.1635 82.3334 65.921 82.8305 66.1482C83.5762 66.5269 83.6383 66.224 83.0791 64.3304C82.3334 61.6036 81.7742 61.5279 80.78 64.1031Z" fill="white"/>
<path d="M85.689 64.5572C85.689 66.2993 85.8754 66.7538 86.2482 65.9964C86.7453 65.0874 86.4968 62.1334 85.9375 62.1334C85.8132 62.1334 85.689 63.2696 85.689 64.5572Z" fill="white"/>
<path d="M87.988 63.5726C87.8637 64.33 87.9258 65.4661 88.2365 65.9964C88.6094 66.7538 88.7958 66.2993 88.7958 64.5572C88.7958 61.8305 88.4851 61.376 87.988 63.5726Z" fill="white"/>
<path d="M91.3437 64.1031C90.9708 65.2393 90.7844 66.2997 90.9087 66.5269C91.0951 66.7542 91.5301 66.0725 91.8408 65.0878C92.4 63.3457 92.5864 63.3457 92.7729 65.315C92.7729 65.7695 93.1457 66.2997 93.5806 66.4512C94.1399 66.6784 94.1399 66.224 93.5806 64.4819C92.7107 61.6036 92.3379 61.5279 91.3437 64.1031Z" fill="white"/>
<path d="M24.4825 70.8441C24.731 71.6773 24.9796 72.8134 24.9796 73.2679C25.0417 74.707 25.2903 74.4798 26.3467 71.9803C26.9059 70.6926 27.0302 69.7079 26.6573 69.7079C26.3467 69.7079 26.036 70.3139 26.036 70.9956C26.036 72.1317 25.9117 72.056 25.0417 70.7684C24.1097 69.3292 24.0475 69.3292 24.4825 70.8441Z" fill="white"/>
<path d="M31.6284 71.9801C31.6284 73.6465 31.9391 74.2524 32.7469 74.2524C34.3625 74.2524 34.6111 73.798 34.2382 71.6014C33.8033 68.7232 31.6284 69.0261 31.6284 71.9801ZM33.4926 71.9801C33.4926 72.8133 33.244 73.495 32.9955 73.495C32.7469 73.495 32.4984 72.8133 32.4984 71.9801C32.4984 71.147 32.7469 70.4653 32.9955 70.4653C33.244 70.4653 33.4926 71.147 33.4926 71.9801Z" fill="white"/>
<path d="M36.848 71.8287C36.1644 73.9496 36.2266 74.0253 37.9043 73.9496C38.8985 73.8738 39.7063 73.7981 39.7063 73.7223C39.7063 73.0406 38.1529 69.7079 37.9043 69.7079C37.6558 69.7079 37.2208 70.6926 36.848 71.8287Z" fill="white"/>
<path d="M41.8193 70.8444C41.1979 72.6622 42.0679 74.2528 43.5592 74.1771H44.9884L43.6213 73.4954C42.8135 73.1167 42.1922 72.435 42.1922 71.9805C42.1922 71.5261 42.8135 70.8444 43.6213 70.4657L44.9884 69.784H43.5592C42.8135 69.7082 42.0057 70.2384 41.8193 70.8444Z" fill="white"/>
<path d="M50.0838 70.2382C49.9595 70.6169 49.6488 71.6773 49.4624 72.7378C49.0895 74.4041 49.276 74.6313 50.9537 74.6313C52.1965 74.6313 52.6936 74.3284 52.445 73.6467C52.2586 73.0407 52.1343 71.9803 52.1343 71.1471C52.1343 69.7838 50.643 69.1021 50.0838 70.2382ZM51.2644 73.268C50.5809 74.1011 50.208 72.965 50.7051 71.5259C51.1401 70.1625 51.2022 70.1625 51.3887 71.4501C51.5129 72.2076 51.4508 73.0407 51.2644 73.268Z" fill="white"/>
<path d="M54.8684 70.7682C54.247 72.7376 55.1169 74.4039 56.6083 74.101C57.6646 73.9495 58.0375 73.3435 58.0375 71.9801C58.0375 70.6168 57.6646 70.0108 56.6083 69.8593C55.8005 69.7078 55.0548 70.0866 54.8684 70.7682ZM57.7268 71.9801C57.7268 73.5708 56.2354 74.101 55.5519 72.7376C55.0548 71.6772 55.7383 70.4653 56.8568 70.4653C57.3539 70.4653 57.7268 71.147 57.7268 71.9801Z" fill="white"/>
<path d="M60.2122 71.9801C60.2122 73.192 60.4607 74.2524 60.8335 74.2524C61.1442 74.2524 61.2064 73.6465 61.02 72.8891C60.6471 71.7529 60.7093 71.7529 61.6414 72.6618C63.257 74.2524 63.6298 73.1163 62.1385 71.2984C60.3986 69.1776 60.2122 69.2534 60.2122 71.9801Z" fill="white"/>
<path d="M63.6918 70.3899C63.4432 70.7686 63.5675 71.9048 63.8782 72.8894C64.4375 74.4801 64.4996 74.4801 64.4996 72.132C64.5617 69.7082 64.3132 69.178 63.6918 70.3899Z" fill="white"/>
<path d="M67.6687 70.4657C67.6687 70.8444 67.9794 71.2231 68.2901 71.2231C68.6629 71.2231 68.9115 70.8444 68.9115 70.4657C68.9115 70.0112 68.6629 69.7083 68.2901 69.7083C67.9794 69.7083 67.6687 70.0112 67.6687 70.4657Z" fill="white"/>
<path d="M66.799 73.192C66.6126 73.7222 67.2339 74.0252 68.2903 73.9494C69.2224 73.8737 69.9059 73.495 69.7195 73.1162C69.4088 72.0558 67.1718 72.0558 66.799 73.192Z" fill="white"/>
</svg>
