<svg width="74" height="55" viewBox="0 0 74 55" fill="none" xmlns="http://www.w3.org/2000/svg">
<path d="M42.55 51.209C45.3481 50.7337 50.3142 48.3974 54.7137 45.4771C58.5351 42.9461 60.969 40.7186 62.9925 37.8956C65.8542 33.9102 67.9759 28.7738 68.82 23.792C69.1206 21.9883 69.1726 21.3584 69.1726 19.1252C69.1726 17.2756 69.1553 16.9263 69.0396 16.0903C68.6985 13.6223 68.1551 11.79 67.1781 9.82015C66.6 8.66346 66.149 7.91906 65.4032 6.93988C63.7151 4.70095 60.8534 2.82276 57.9281 2.02682C54.5692 1.1049 51.0426 1.42557 47.9554 2.9201C43.949 4.86128 41.3706 8.43442 40.7867 12.8436C40.5785 14.4412 40.752 17.8425 41.1393 19.6577C41.966 23.5401 44.5907 26.0997 50.4703 28.7452C52.5515 29.6843 53.8292 30.4688 54.7195 31.3506C55.5231 32.1523 55.8353 32.7764 55.8873 33.6697C55.9798 35.2444 54.8409 37.1398 51.8 40.4839C50.1639 42.2876 49.1232 43.1408 46.4523 44.8758C45.851 45.2652 44.7295 45.9924 43.9664 46.4906C42.3823 47.5156 41.544 48.1627 41.1162 48.6838C40.6884 49.1991 40.567 49.474 40.5381 49.9893C40.5207 50.373 40.5381 50.4531 40.6826 50.7337C40.9081 51.1746 41.0815 51.2491 41.8273 51.2434C42.1453 51.2376 42.469 51.2205 42.55 51.209Z" fill="#BD8988"/>
<path d="M7.05297 51.0373C11.3195 50.2585 19.0259 46.0326 23.8475 41.8296C27.6458 38.5198 30.918 32.9769 32.5772 27.0617C33.9762 22.0513 34.1266 17.2871 33.0108 13.0612C32.2014 10.0091 30.4786 6.99714 28.5303 5.21057C24.0441 1.12207 17.7598 0.171525 12.4006 2.77694C8.56187 4.64368 5.96031 8.2111 5.3475 12.4313C5.08734 14.2064 5.26078 17.6479 5.69437 19.5948C6.54422 23.3569 9.1689 25.9279 14.7131 28.4303C18.5692 30.171 20.1244 31.4823 20.4077 33.246C20.5811 34.3053 20.0203 35.7197 18.7716 37.3918C17.9564 38.4855 16.1642 40.5469 15.1583 41.5604C14.1812 42.5396 12.47 43.765 8.94344 46.0097C6.69453 47.4355 5.60187 48.3517 5.22609 49.1075C5.08734 49.3881 5.05844 49.5141 5.05844 49.8749C5.05844 50.2299 5.08156 50.3501 5.20297 50.5563C5.45156 50.9857 5.57875 51.0487 6.28984 51.0602C6.63094 51.0602 6.97203 51.0545 7.05297 51.0373Z" fill="#BD8988"/>
</svg>
