<svg width="35" height="25" viewBox="0 0 35 25" fill="none" xmlns="http://www.w3.org/2000/svg">
<path d="M30.1224 15.7035C31.2834 17.0529 32.5087 18.3225 33.5501 19.808C34.01 20.4681 34.4455 21.1493 34.7787 21.9154C35.2508 23.0044 34.8232 24.2028 34.0029 24.2679L28.904 24.2651C27.5889 24.395 26.5398 23.7648 25.6577 22.6943C24.9518 21.8383 24.298 20.9272 23.6192 20.0423C23.3409 19.6806 23.0496 19.3403 22.7017 19.0712C22.0056 18.5334 21.4014 18.698 21.0036 19.5623C20.5985 20.4414 20.5066 21.4147 20.4668 22.3943C20.4122 23.8237 20.0493 24.1995 18.8432 24.2649C16.2657 24.4096 13.8195 23.9454 11.5471 22.3975C9.54361 21.0329 7.99008 19.1064 6.6378 16.9255C4.00508 12.6788 1.98883 8.0123 0.176764 3.21509C-0.231135 2.13428 0.0671842 1.55412 1.06892 1.53353C2.7323 1.49504 4.39548 1.4978 6.06085 1.53076C6.73692 1.54256 7.18447 2.00415 7.44553 2.76449C8.34548 5.39885 9.44668 7.90521 10.8289 10.2284C11.197 10.8469 11.5724 11.4654 12.1068 11.9007C12.6981 12.3828 13.1483 12.223 13.4265 11.4388C13.603 10.9416 13.6803 10.406 13.7201 9.87355C13.8519 8.04144 13.8692 6.21241 13.6381 4.38673C13.4962 3.24732 12.9571 2.50969 12.0021 2.29411C11.5147 2.18417 11.5873 1.96826 11.8233 1.63713C12.2331 1.066 12.6185 0.710449 13.387 0.710449H19.1495C20.0567 0.923584 20.2582 1.40877 20.3824 2.49545L20.3873 10.1157C20.3774 10.5363 20.5638 11.7848 21.2003 12.0632C21.7097 12.2614 22.0455 11.7762 22.3512 11.3917C23.7309 9.64846 24.7156 7.58823 25.5953 5.45493C25.9857 4.51685 26.3214 3.54273 26.6467 2.56934C26.8878 1.84709 27.266 1.4917 27.9494 1.50741L33.4955 1.51327C33.66 1.51327 33.8264 1.51612 33.9856 1.54859C34.9202 1.7382 35.1763 2.2168 34.8876 3.30323C34.4328 5.00774 33.5479 6.42823 32.6827 7.85524C31.7578 9.37876 30.7686 10.8502 29.8514 12.3828C29.0087 13.7825 29.0756 14.4879 30.1224 15.7035Z" fill="#436EAB"/>
</svg>
