<svg width="25" height="25" viewBox="0 0 25 25" fill="none" xmlns="http://www.w3.org/2000/svg">
<path d="M0 25L2.15 18.5504C1.05905 16.7155 0.431034 14.5741 0.431034 12.2845C0.431034 5.5 5.93103 0 12.7155 0C19.5 0 25 5.5 25 12.2845C25 19.069 19.5 24.569 12.7155 24.569C10.6513 24.569 8.70733 24.0573 7 23.1582L0 25Z" fill="#2CB742"/>
<path d="M20.5529 16.3729C19.9857 15.3009 17.8939 14.0751 17.8939 14.0751C17.4206 13.8053 16.8495 13.7751 16.5796 14.2561C16.5796 14.2561 15.8999 15.0712 15.727 15.1884C14.9374 15.7234 14.2059 15.7027 13.4676 14.9643L11.7516 13.2484L10.0357 11.5324C9.2973 10.794 9.27661 10.0626 9.81152 9.27293C9.92877 9.10008 10.7439 8.42034 10.7439 8.42034C11.2249 8.15008 11.1947 7.57939 10.9249 7.10611C10.9249 7.10611 9.69902 5.0143 8.62704 4.44706C8.17101 4.20568 7.61109 4.29017 7.24644 4.65482L6.48868 5.41258C4.0848 7.81646 5.26842 10.5303 7.6723 12.9341L9.86928 15.1311L12.0663 17.3281C14.4701 19.732 17.1839 20.9156 19.5878 18.5117L20.3456 17.754C20.7102 17.3884 20.7943 16.8285 20.5529 16.3729Z" fill="white"/>
</svg>
